<?xml version="1.0" encoding="UTF-8" standalone="no"?>
<!-- Created with Inkscape (http://www.inkscape.org/) -->

<svg
   xmlns:dc="http://purl.org/dc/elements/1.1/"
   xmlns:cc="http://creativecommons.org/ns#"
   xmlns:rdf="http://www.w3.org/1999/02/22-rdf-syntax-ns#"
   xmlns:svg="http://www.w3.org/2000/svg"
   xmlns="http://www.w3.org/2000/svg"
   xmlns:sodipodi="http://sodipodi.sourceforge.net/DTD/sodipodi-0.dtd"
   xmlns:inkscape="http://www.inkscape.org/namespaces/inkscape"
   version="1.1"
   id="svg815"
   xml:space="preserve"
   width="321.36566"
   height="190.69382"
   viewBox="0 0 321.36566 190.69382"
   sodipodi:docname="head.svg"
   ><metadata
     id="metadata821"><rdf:RDF><cc:Work
         rdf:about=""><dc:format>image/svg+xml</dc:format><dc:type
           rdf:resource="http://purl.org/dc/dcmitype/StillImage" /><dc:title></dc:title></cc:Work></rdf:RDF></metadata><defs
     id="defs819"><clipPath
       clipPathUnits="userSpaceOnUse"
       id="clipPath927"><path
         d="M 0,239.333 H 358 V 0 H 0 Z"
         id="path925"
         inkscape:connector-curvature="0" /></clipPath><radialGradient
       fx="0"
       fy="0"
       cx="0"
       cy="0"
       r="1"
       gradientUnits="userSpaceOnUse"
       gradientTransform="matrix(16.546608,0,0,16.546608,135.48773,160.06093)"
       spreadMethod="pad"
       id="radialGradient1173"><stop
         style="stop-opacity:1;stop-color:#b07a1b"
         offset="0"
         id="stop1165" /><stop
         style="stop-opacity:1;stop-color:#b07a1b"
         offset="0.114816"
         id="stop1167" /><stop
         style="stop-opacity:1;stop-color:#fdd08f"
         offset="0.32911358"
         id="stop1169" /><stop
         style="stop-opacity:1;stop-color:#fdd08f"
         offset="1"
         id="stop1171" /></radialGradient><radialGradient
       fx="0"
       fy="0"
       cx="0"
       cy="0"
       r="1"
       gradientUnits="userSpaceOnUse"
       gradientTransform="matrix(16.546608,0,0,16.546608,346.75902,158.72759)"
       spreadMethod="pad"
       id="radialGradient1197"><stop
         style="stop-opacity:1;stop-color:#932f14"
         offset="0"
         id="stop1189" /><stop
         style="stop-opacity:1;stop-color:#932f14"
         offset="0.0163026"
         id="stop1191" /><stop
         style="stop-opacity:1;stop-color:#f3977c"
         offset="0.30805809"
         id="stop1193" /><stop
         style="stop-opacity:1;stop-color:#f3977c"
         offset="1"
         id="stop1195" /></radialGradient></defs><sodipodi:namedview
     pagecolor="#ffffff"
     bordercolor="#666666"
     borderopacity="1"
     objecttolerance="10"
     gridtolerance="10"
     guidetolerance="10"
     inkscape:pageopacity="0"
     inkscape:pageshadow="2"
     inkscape:window-width="1920"
     inkscape:window-height="1137"
     id="namedview817"
     showgrid="false"
     inkscape:zoom="1.8812711"
     inkscape:cx="47.612388"
     inkscape:cy="22.1481"
     inkscape:window-x="-8"
     inkscape:window-y="-8"
     inkscape:window-maximized="1"
     inkscape:current-layer="g823"
     fit-margin-top="0"
     fit-margin-left="0"
     fit-margin-right="0"
     fit-margin-bottom="0" /><g
     inkscape:groupmode="layer"
     id="layer2"
     inkscape:label="fill"
     transform="translate(-80.273937,-56.284857)"><path
       inkscape:connector-curvature="0"
       id="path23126"
       style="display:inline;fill:url(#radialGradient1197);stroke:none;stroke-width:1.33333325"
       d="m 346.28532,140.07067 c -3.14533,0.27467 -4.51333,2.94 -5.744,4.376 v 0 c -1.22933,1.43734 -1.84533,3.96667 -2.324,5.60667 v 0 c -0.47866,1.64133 0.616,5.53867 1.02667,6.01733 v 0 c 0.40933,0.47867 2.66533,0.34134 3.828,1.91334 v 0 c 1.16267,1.57333 -0.0693,3.556 -0.0693,3.556 v 0 c 0,0 -0.34,1.50533 -0.40934,2.46133 v 0 c -0.068,0.95733 -0.34133,2.052 -0.40933,2.736 v 0 c -0.0693,0.68267 -1.3,1.708 -3.00933,3.964 v 0 c -1.70934,2.256 0,5.812 0.41066,8.20533 v 0 c 0.40934,2.39334 1.84534,2.32534 3.75867,2.628 v 0 c 1.91333,0.30267 3.62533,-2.28666 4.85467,-3.72133 v 0 c 1.232,-1.43733 7.52266,-13.47067 9.74666,-18.30933 v 0 c 2.224,-4.84 1.468,-9.17734 0.716,-12.80134 v 0 c -0.75333,-3.624 -4.788,-5.67466 -6.01733,-6.28933 v 0 c -0.74,-0.36933 -1.74933,-0.51733 -3.12,-0.51733 v 0 c -0.912,0 -1.98267,0.0653 -3.23867,0.17466"
       transform="translate(0,-2.022233e-6)" /><path
       inkscape:connector-curvature="0"
       id="path23129"
       style="display:inline;fill:url(#radialGradient1173);stroke:none;stroke-width:1.33333325"
       d="m 129.26933,140.41334 c -1.23067,0.61467 -5.264,2.66533 -6.016,6.28933 v 0 c -0.752,3.624 -1.50933,7.96134 0.71467,12.80134 v 0 c 2.224,4.83866 8.51466,16.872 9.74533,18.30933 v 0 c 1.232,1.43467 2.944,4.024 4.85733,3.72133 v 0 c 1.912,-0.30266 3.348,-0.23466 3.75734,-2.628 v 0 c 0.41066,-2.39333 2.12,-5.94933 0.41066,-8.20533 v 0 c -1.708,-2.256 -2.94,-3.28133 -3.008,-3.964 v 0 c -0.068,-0.684 -0.34266,-1.77867 -0.41066,-2.736 v 0 c -0.068,-0.956 -0.41067,-2.46133 -0.41067,-2.46133 v 0 c 0,0 -1.22933,-1.98267 -0.068,-3.556 v 0 c 1.16267,-1.572 3.41867,-1.43467 3.82933,-1.91334 v 0 c 0.41067,-0.47866 1.504,-4.376 1.024,-6.01733 v 0 c -0.47733,-1.64 -1.092,-4.16933 -2.32266,-5.60667 v 0 c -1.23067,-1.436 -2.59867,-4.10133 -5.744,-4.376 v 0 c -1.256,-0.10933 -2.328,-0.17466 -3.23867,-0.17466 v 0 c -1.37067,0 -2.38133,0.148 -3.12,0.51733"
       transform="translate(0,-2.022233e-6)" /><path
       transform="matrix(1.3333333,0,0,-1.3333333,0,319.11067)"
       style="display:inline;fill:#b5dee4;fill-opacity:1;fill-rule:nonzero;stroke:none;stroke-width:0.99999994"
       d="m 105.87454,131.66406 c -0.292,-3.291 1.97256,-2.45325 1.85156,-5.15625 -0.06,-1.344 -3.63669,-1.44769 -4.15869,-4.6377 -0.402,-2.452 0.2739,-12.21933 0.60791,-16.61132 0.08,-1.04101 0.13912,-1.77639 0.16113,-2.04639 0.005,-0.073 0.009,-0.11719 0.009,-0.11719 l 7.01514,-0.88916 36.28857,-4.595222 0.0293,-0.003 c 0.078,-0.085 0.74389,0.23928 2.06689,1.07227 1.784,1.12301 4.15723,2.419922 4.15722,2.419922 0,0 0.34849,3.65526 0.52149,4.98926 0.07,0.53001 0.69619,0.46361 3.59619,1.39161 2.901,0.92799 3.83038,2.14688 4.52638,3.19188 0.696,1.044 -0.23304,2.60992 -1.10304,3.71192 -0.871,1.103 -2.43734,3.47998 -3.42334,5.10498 -0.986,1.624 -1.73877,3.76905 -1.73877,3.76905 0,0 0.11563,-1.33249 -3.71338,-2.66749 -2.56399,-0.894 -7.54079,-0.986 -13.34179,0 -5.801,0.98601 -9.24903,5.15919 -9.24903,5.15919 z m 48.01025,-31.31837 -5.625,-3.168452 c 0,0 0.70684,0.15312 1.90283,0.32812 1.197,0.174 2.24268,-0.79834 2.24268,-0.79834 0.524,0.25001 0.99771,0.77371 1.4707,1.84571 0.47402,1.072 0.009,1.792962 0.009,1.792962 z"
       id="grip_head_a09"
       inkscape:connector-curvature="0" /><path
       transform="matrix(1.3333333,0,0,-1.3333333,0,319.11067)"
       inkscape:connector-curvature="0"
       id="grip_head_a11"
       style="display:inline;fill:#bddaa7;fill-opacity:1;fill-rule:nonzero;stroke:none;stroke-width:0.99999994"
       d="m 153.14002,95.592598 c -1.698,2.364 -3.294,1.358 -5.287,1.556 -0.616,0.062 -0.113,0.253 -0.204,0.462 l -36.288,4.596002 0.085,-4.825002 0.027,-0.021 c 0,0 -0.17199,-0.863 0.51801,-4.373 0.651,-3.312 0.12499,-2.288 1.548,-4.309 1.42399,-2.02 4.179,-5.005 5.55699,-5.969 1.378,-0.965 6.65601,-3.998 8.22,-5.006 3.274,-2.11 4.62301,-2.316 7.09801,-3.098 2.204,-0.697 5.38599,-1.097 8.00899,-0.391 2.345,0.63 4.603,2.289 5.405,3.161 0.374,0.405 0.553,0.618 0.859,1.07 0.515,0.757 0.98,1.917 1.037,3.529 0.092,2.572 -0.413,2.985 -0.321,4.408 0.092,1.424 0.643,2.572 1.378,3.49 0.734,0.919 2.328,2.726 2.328,2.726 0,0 0.872,1.823 0.031,2.994"
       inkscape:label="#path939" /><path
       transform="matrix(1.3333333,0,0,-1.3333333,0,319.11067)"
       inkscape:connector-curvature="0"
       id="grip_head_a01"
       style="display:inline;fill:#ddb3d4;fill-opacity:1;fill-rule:nonzero;stroke:none;stroke-width:0.99999994"
       d="m 104.34603,103.0951 c 0,0 -0.004,0.045 -0.01,0.11799 -0.022,0.27 -0.082,1.00401 -0.16101,2.04501 -2.078,-0.053 -3.85599,0.029 -4.196995,0.46899 -0.821002,1.06101 -2.946997,5.53301 -4.197997,7.68101 -1.105005,1.899 -2.977005,5.695 -3.573,8.396 -0.532005,2.413 -0.424005,4.815 -0.335003,5.708 0.089,0.894 0.723998,4.412 3.963998,6.273 2.500005,1.436 6.997007,0.382 6.997007,0.382 0,0 1.37199,9.952 2.53299,27.836 1.104,16.995 3.11901,31.55 3.11901,33.71 -4.839,0.376 -15.409007,-2.71 -18.735003,-4.588 -3.087,-1.743 -4.792005,-2.25 -8.167005,-4.75 -3.375,-2.5 -8.707996,-6.333 -12.540997,-12.917 -3.834,-6.583 -4.292,-7.416 -5.917,-12.79101 -1.625,-5.37499 -1.5,-9.91699 -1.5,-9.91699 0.208,-3.458 1.292,-8.875 1.792,-13.333 0.5,-4.459 3.25,-11.375 3.625,-12.125 0.375,-0.75 4.729001,-10.422 4.885001,-10.84401 0.156,-0.42199 2.343999,-5.21899 2.796999,-6.39099 0.453,-1.171 1.749997,-3.65601 1.749997,-3.65601 l 0.406005,-0.62499 c 0.405998,-0.625 0.984998,-2.047 1.563,-3.781002 0.577995,-1.734 0.354,-4.461 0.354,-4.461 10.389,10.114002 32.806993,0.15199 32.676003,0.33 l -0.027,1.51699 -0.085,4.825012 z"
       inkscape:label="#path943" /><path
       transform="matrix(1.3333333,0,0,-1.3333333,0,319.11067)"
       inkscape:connector-curvature="0"
       id="grip_head_a12"
       style="display:inline;fill:#f8c9cd;fill-opacity:1;fill-rule:nonzero;stroke:none;stroke-width:0.99999994"
       d="m 213.78602,97.610698 c -0.091,-0.209 0.412,-0.4 -0.205,-0.462 -1.992,-0.198 -3.588,0.808 -5.286,-1.556 -0.841,-1.171 0.031,-2.994 0.031,-2.994 0,0 1.594,-1.807 2.328,-2.726 0.735,-0.918 1.286,-2.066 1.378,-3.49 0.092,-1.423 -0.413,-1.836 -0.322,-4.408 0.058,-1.612 0.524,-2.772 1.038,-3.53 0.306,-0.451 0.486,-0.664 0.858,-1.069 0.803,-0.872 3.06,-2.531 5.406,-3.161 2.623,-0.706 5.806,-0.306 8.009,0.391 2.474,0.782 3.824,0.988 7.098,3.098 1.563,1.008 6.843,4.041 8.22,5.006 1.378,0.964 4.133,3.949 5.556,5.969 1.424,2.021 0.898,0.997 1.549,4.308 0.691,3.511 0.518,4.374 0.518,4.374 l 0.027,0.021 0.085,4.825002 z"
       inkscape:label="#path951" /><path
       transform="matrix(1.3333333,0,0,-1.3333333,0,319.11067)"
       inkscape:connector-curvature="0"
       id="grip_head_a02"
       style="display:inline;fill:#6bbad4;fill-opacity:1;fill-rule:nonzero;stroke:none;stroke-width:0.99999994"
       d="m 298.30992,160.66679 c -1.625,5.375 -2.083,6.208 -5.916,12.79201 -3.834,6.583 -9.167,10.41599 -12.542,12.91599 -3.375,2.50001 -5.08,3.00701 -8.167,4.75001 -3.326,1.878 -13.896,4.96399 -18.735,4.588 7.5e-4,-2.16 2.016,-16.71401 3.119,-33.71001 1.161,-17.884 2.533,-27.83599 2.533,-27.83599 0,0 4.497,1.05499 6.997,-0.38201 3.24,-1.861 3.875,-5.379 3.964,-6.273 0.09,-0.89299 0.197,-3.295 -0.335,-5.707 -0.596,-2.702 -2.468,-6.497 -3.572,-8.396 -1.251,-2.149 -3.377,-6.62099 -4.199,-7.682 -0.34,-0.44 -2.12,-0.521 -4.197,-0.46899 -0.079,-1.04001 -0.139,-1.77501 -0.161,-2.04401 -0.006,-0.073 -0.01,-0.11899 -0.01,-0.11899 l -7.015,-0.888 -0.085,-4.826012 -0.027,-1.517 c -0.131,-0.178 22.287,9.784012 32.676,-0.32899 0,0 -0.224,2.72599 0.355,4.45999 0.578,1.735012 1.15601,3.156002 1.562,3.781012 l 0.406,0.62499 c 0,0 1.29701,2.485 1.75001,3.657 0.453,1.17201 2.64099,5.968 2.79699,6.39 0.156,0.422 4.51101,10.094 4.88601,10.844 0.375,0.75 3.12499,7.667 3.62499,12.125 0.50001,4.458 1.58301,9.87501 1.791,13.333 0,0 0.12501,4.542 -1.5,9.917"
       inkscape:label="#path959" /><path
       transform="matrix(1.3333333,0,0,-1.3333333,0,319.11067)"
       style="display:inline;fill:#fce8b9;fill-opacity:1;fill-rule:nonzero;stroke:none;stroke-width:0.99999994"
       d="m 255.5596,131.66406 -24.10254,-5.91358 c 0,0 -3.44655,-4.17318 -9.24756,-5.15918 -5.80099,-0.986 -10.7768,-0.893 -13.3418,0 -3.829,1.335 -3.71338,2.66895 -3.71338,2.66895 0,0 -0.75423,-2.14552 -1.74023,-3.77051 -0.986,-1.62401 -2.55334,-4.00198 -3.42334,-5.10498 -0.87,-1.102 -1.79756,-2.66938 -1.10156,-3.71338 0.69701,-1.04501 1.6249,-2.26243 4.5249,-3.19043 2.901,-0.92799 3.52865,-0.8616 3.59765,-1.3916 0.174,-1.334 0.52149,-4.98926 0.52149,-4.98926 0,0 2.37369,-1.296922 4.15869,-2.419922 1.323,-0.833 1.98597,-1.15874 2.06397,-1.07373 l 0.0308,0.005 36.2871,4.595212 7.01514,0.88916 c 0,0 0.004,0.0446 0.0103,0.11865 0.022,0.269 0.0807,1.00493 0.15967,2.04493 0.33499,4.39199 1.01037,14.15933 0.60937,16.61133 -0.522,3.19 -4.09869,3.2937 -4.15869,4.6377 -0.12199,2.703 2.1421,1.86525 1.85009,5.15625 z m -48.00879,-31.31837 c 0,0 -0.4667,-0.720962 0.008,-1.792962 0.473,-1.072 0.94817,-1.5957 1.47217,-1.84571 0,0 1.04568,0.97234 2.24268,0.79834 1.196,-0.175 1.90283,-0.32812 1.90283,-0.32812 z"
       id="grip_head_a10"
       inkscape:connector-curvature="0" /><path
       transform="matrix(1.3333333,0,0,-1.3333333,0,319.11067)"
       inkscape:connector-curvature="0"
       id="grip_head_a05"
       style="display:inline;fill:#62bfb9;fill-opacity:1;fill-rule:nonzero;stroke:none;stroke-width:0.99999994"
       d="m 157.24402,138.72 c 0,0 -5.269,5.94 -15.56,4.783 -10.29199,-1.158 -11.707,-17.753 -11.707,-17.753 3.606,-4.333 8.503,-5.337 13.606,-5.833 6.068,-0.591 13.874,1.117 12.376,3.835 -1.498,2.719 -1.776,5.327 -1.11,7.768 0.666,2.441 2.395,7.2 2.395,7.2"
       inkscape:label="#path971" /><path
       transform="matrix(1.3333333,0,0,-1.3333333,0,319.11067)"
       inkscape:connector-curvature="0"
       id="grip_head_a03"
       style="display:inline;fill:#d3d6ce;fill-opacity:1;fill-rule:nonzero;stroke:none;stroke-width:0.99999994"
       d="m 141.68392,143.5028 c 10.291,1.158 15.56,-4.783 15.56,-4.783 0,0 1.444,4.087 1.414,7.34299 0,0 -0.031,3.34901 -0.246,4.332 -0.215,0.98301 -1.66,7.34301 -1.629,7.80401 0.031,0.46099 -0.938,4.81099 -1.106,5.53099 -0.307,1.32001 -2.611,6.52001 -3.287,7.61901 -0.738,1.198 -3.103,4.977 -5.346,6.79 0,0 -4.801,4.456 -6.237,5.622 -1.475,1.199 -5.315,4.025 -6.79,4.732 0,0 -5.16199,2.919 -7.773,3.81 0,0 -4.14799,1.567 -7.435,2.304 -3.288,0.737 -7.587,1.106 -10.324,1.106 -0.09,0 -3.611,-36.436 -5.822,-61.478 -0.059,-0.66 -1.096,-0.468 0.186,-2.006 l 3.137,-0.78 23.99101,-5.698 c 0,0 1.41499,16.594 11.70699,17.752"
       inkscape:label="#path975" /><path
       transform="matrix(1.3333333,0,0,-1.3333333,0,319.11067)"
       inkscape:connector-curvature="0"
       id="grip_head_a06"
       style="display:inline;fill:#bfc9e8;fill-opacity:1;fill-rule:nonzero;stroke:none;stroke-width:0.99999994"
       d="m 219.75133,143.5028 c -10.29201,1.158 -15.561,-4.783 -15.561,-4.783 0,0 1.73,-4.75901 2.396,-7.2 0.66499,-2.441 0.388,-5.049 -1.11,-7.767 -1.49801,-2.71901 6.30799,-4.42701 12.376,-3.83601 5.103,0.49701 9.99999,1.50001 13.605,5.83401 0,0 -1.41501,16.594 -11.706,17.752"
       inkscape:label="#path979" /><path
       transform="matrix(1.3333333,0,0,-1.3333333,0,319.11067)"
       inkscape:connector-curvature="0"
       id="grip_head_a04"
       style="display:inline;fill:#e19ba3;fill-opacity:1;fill-rule:nonzero;stroke:none;stroke-width:0.99999994"
       d="m 258.77282,134.2352 c -2.211,25.04199 -5.733,61.478 -5.823,61.478 -2.736,0 -7.036,-0.369 -10.323,-1.106 -3.288,-0.738 -7.436,-2.305 -7.436,-2.305 -2.611,-0.891 -7.773,-3.81 -7.773,-3.81 -1.474,-0.706 -5.315,-3.533 -6.79,-4.731 -1.436,-1.167 -6.236,-5.623 -6.236,-5.623 -2.244,-1.812 -4.609,-5.591 -5.347,-6.789 -0.676,-1.1 -2.98,-6.299 -3.28699,-7.62001 -0.16701,-0.72 -1.137,-5.06899 -1.10601,-5.52999 0.031,-0.46101 -1.413,-6.82101 -1.629,-7.804 -0.21399,-0.983 -0.245,-4.332 -0.245,-4.332 -0.031,-3.257 1.413,-7.343 1.413,-7.343 0,0 5.269,5.94 15.561,4.78299 10.291,-1.158 11.706,-17.75299 11.706,-17.75299 l 23.991,5.69899 3.137,0.77901 c 1.282,1.538 0.245,1.347 0.187,2.007"
       inkscape:label="#path983" /><path
       transform="matrix(1.3333333,0,0,-1.3333333,0,319.11067)"
       d="m 259.71402,134.28 c -2.359,-0.206 -3.385,-2.205 -4.308,-3.282 v 0 c -0.922,-1.078 -1.384,-2.975 -1.743,-4.205 v 0 c -0.359,-1.231 0.462,-4.154 0.77,-4.513 v 0 c 0.307,-0.359 1.999,-0.256 2.871,-1.435 v 0 c 0.872,-1.18 -0.052,-2.66701 -0.052,-2.66701 v 0 c 0,0 -0.255,-1.12899 -0.30701,-1.84599 v 0 c -0.051,-0.718 -0.256,-1.539 -0.307,-2.052 v 0 c -0.052,-0.51201 -0.975,-1.281 -2.25699,-2.973 v 0 c -1.28201,-1.692 0,-4.359 0.30799,-6.154 v 0 c 0.30701,-1.79501 1.38401,-1.74401 2.819,-1.971 v 0 c 1.435,-0.227 2.719,1.71499 3.64101,2.791 v 0 c 0.924,1.07799 5.64199,10.103 7.30999,13.73199 v 0 c 1.668,3.63001 1.101,6.88301 0.537,9.60101 v 0 c -0.56499,2.718 -3.591,4.256 -4.51299,4.717 v 0 c -0.555,0.277 -1.312,0.388 -2.34,0.388 v 0 c -0.68401,0 -1.48701,-0.049 -2.42901,-0.131"
       style="display:inline;fill:#932f14;fill-opacity:1;stroke:none;stroke-width:0.99999994"
       id="grip_head_a08"
       inkscape:connector-curvature="0"
       inkscape:label="#path1199" /><path
       transform="matrix(1.3333333,0,0,-1.3333333,0,319.11067)"
       d="m 96.952025,134.023 c -0.923002,-0.461 -3.948,-1.999 -4.512,-4.717 v 0 c -0.564,-2.718 -1.131998,-5.971 0.536003,-9.60101 v 0 c 1.668,-3.62899 6.385995,-12.654 7.308992,-13.73199 v 0 c 0.924,-1.07601 2.208,-3.018 3.643,-2.791 v 0 c 1.434,0.22699 2.511,0.17599 2.81801,1.971 v 0 c 0.30799,1.795 1.59,4.462 0.30799,6.154 v 0 c -1.281,1.692 -2.205,2.46099 -2.256,2.973 v 0 c -0.051,0.513 -0.25699,1.334 -0.30799,2.052 v 0 c -0.051,0.717 -0.30801,1.84599 -0.30801,1.84599 v 0 c 0,0 -0.92199,1.48701 -0.051,2.66701 v 0 c 0.87201,1.179 2.56401,1.076 2.872,1.435 v 0 c 0.308,0.359 1.128,3.282 0.768,4.513 v 0 c -0.358,1.23 -0.819,3.127 -1.74199,4.205 v 0 c -0.92301,1.077 -1.94901,3.076 -4.308,3.282 v 0 c -0.942,0.082 -1.746002,0.131 -2.429005,0.131 v 0 c -1.028002,0 -1.785997,-0.111 -2.34,-0.388"
       style="display:inline;fill:#b07a1b;fill-opacity:1;stroke:none;stroke-width:0.99999994"
       id="grip_head_a07"
       inkscape:connector-curvature="0"
       inkscape:label="#path1175" /></g><g
     id="g823"
     inkscape:groupmode="layer"
     inkscape:label="head-lines"
     transform="matrix(1.3333333,0,0,-1.3333333,-80.273937,262.82581)"
     style="display:inline"><path
       inkscape:connector-curvature="0"
       id="path835"
       style="fill:#b9655c;fill-opacity:1;fill-rule:nonzero;stroke:none"
       d="m 152.7542,93.034 c 0.265,1.884 -0.78,3.678 -2.079,3.661 -1.539,-0.021 -3.076,-0.225 -4.613,-0.349 -0.012,-0.114 -0.023,-0.228 -0.035,-0.342 2.588,-0.104 4.616,-1.491 6.727,-2.97 m -19.875,-38.935 c -0.65,0.967 -1.155,2.087 -1.979,2.872 -2.441,2.322 -3.057,5.302 -3.181,8.42 -0.088,2.203 0.045,4.431 0.289,6.624 0.132,1.184 0.704,2.318 1.117,3.598 -0.074,0.033 -0.338,0.146 -0.596,0.27 -5.285,2.555 -9.996,5.916 -14.154,10.059 -2.009,2.003 -2.63,4.625 -3.049,7.254 -0.375,2.356 -0.517,4.766 -0.556,7.155 -0.051,3.053 0.098,6.11 0.182,9.164 0.011,0.393 0.149,0.781 0.227,1.171 l 0.306,-0.019 c 0.107,-1.768 0.256,-3.534 0.31,-5.303 0.103,-3.325 -0.031,-6.669 0.284,-9.972 0.214,-2.236 0.83,-4.492 1.645,-6.592 0.481,-1.241 1.595,-2.307 2.609,-3.256 3.83,-3.588 8.025,-6.738 12.892,-8.731 3.099,-1.268 6.263,-2.606 9.722,-2.694 3.044,-0.077 5.746,0.952 8.03,2.884 1.678,1.419 2.483,3.349 2.273,5.614 -0.083,0.895 -0.152,1.792 -0.232,2.687 -0.148,1.65 0.222,3.148 1.259,4.467 0.738,0.938 1.456,1.891 2.19,2.846 -2.318,1.985 -4.848,3.187 -7.928,3.066 -0.01,0.133 -0.02,0.266 -0.031,0.398 1.47,0.858 2.933,1.725 4.409,2.57 1.488,0.851 2.989,1.68 4.588,2.578 0.139,1.304 0.323,2.875 0.468,4.45 0.078,0.844 0.491,1.168 1.328,1.396 1.69,0.458 3.426,0.937 4.952,1.763 2.315,1.253 2.564,2.978 0.97,5.059 -2.42,3.158 -4.39,6.567 -6.021,10.196 -1.267,2.821 -1.492,5.665 -0.53,8.577 0.668,2.018 1.495,3.982 2.195,5.989 1.503,4.314 1.866,8.667 0.76,13.173 -0.807,3.282 -1.24,6.653 -1.911,9.97 -0.513,2.539 -1.595,4.875 -2.656,7.23 -1.408,3.123 -3.462,5.782 -5.786,8.189 -8.373,8.668 -18.196,14.896 -30.189,17.236 -9.259,1.806 -18.124,0.449 -26.638,-3.529 -9.342,-4.364 -16.961,-10.676 -22.243,-19.624 -2.701,-4.574 -4.617,-9.485 -5.726,-14.671 -0.851,-3.982 -0.365,-7.976 0.212,-11.976 0.818,-5.672 1.525,-11.365 3.603,-16.748 1.022,-2.648 2.343,-5.18 3.489,-7.782 1.981,-4.495 3.922,-9.009 5.905,-13.504 0.373,-0.847 0.827,-1.665 1.305,-2.46 1.683,-2.796 2.372,-5.887 2.552,-9.081 0.226,-4.036 0.271,-8.082 0.438,-12.122 0.107,-2.607 -0.181,-5.163 -1.14,-7.578 -0.627,-1.577 -1.528,-3.047 -2.323,-4.556 -1.884,-3.574 -3.742,-7.162 -5.689,-10.701 -0.63,-1.146 -1.525,-2.143 -2.26,-3.235 -0.613,-0.91 -1.17,-1.859 -1.751,-2.791 h -1.8 c 0.614,0.976 1.206,1.968 1.847,2.927 1.076,1.61 2.269,3.147 3.254,4.809 1.389,2.343 2.633,4.771 3.939,7.163 1.049,1.919 2.18,3.798 3.125,5.767 1.314,2.737 1.573,5.694 1.446,8.69 -0.142,3.354 -0.233,6.712 -0.481,10.058 -0.221,2.982 -0.443,5.982 -1.914,8.71 -1.18,2.187 -2.371,4.375 -3.406,6.632 -2.021,4.411 -3.779,8.949 -5.939,13.288 -2.189,4.395 -3.678,8.995 -4.604,13.764 -0.788,4.054 -1.148,8.189 -1.806,12.271 -0.676,4.191 -0.035,8.247 1.164,12.223 1.973,6.544 4.918,12.603 9.32,17.903 5.659,6.814 12.697,11.708 20.828,15.104 6.114,2.554 12.482,3.896 19.108,3.557 7.783,-0.399 15.066,-2.653 21.906,-6.383 7.065,-3.852 13.114,-8.944 18.323,-15.035 2.041,-2.386 3.355,-5.246 4.559,-8.122 1.806,-4.315 2.605,-8.904 3.456,-13.471 0.323,-1.734 0.626,-3.475 0.849,-5.225 0.571,-4.478 -0.607,-8.671 -2.156,-12.804 -0.65,-1.735 -1.284,-3.486 -1.761,-5.273 -0.461,-1.726 -0.168,-3.451 0.516,-5.1 1.569,-3.789 3.635,-7.281 6.077,-10.577 0.648,-0.876 1.11,-2.007 1.295,-3.084 0.317,-1.849 -0.73,-3.207 -2.147,-4.267 -1.565,-1.171 -3.366,-1.835 -5.264,-2.202 -0.627,-0.121 -0.861,-0.354 -0.872,-0.976 -0.023,-1.25 -0.179,-2.501 -0.146,-3.748 0.047,-1.714 -0.332,-3.214 -1.769,-4.327 1.394,-1.684 1.093,-3.325 0.049,-4.946 -0.372,-0.578 -0.737,-1.186 -1.221,-1.664 -1.679,-1.66 -2.013,-3.644 -1.641,-5.878 0.502,-3.023 -0.167,-5.748 -2.401,-7.93 -2.133,-2.083 -4.788,-3.174 -7.705,-3.548 -3.179,-0.407 -6.187,0.395 -9.105,1.593 -0.99,0.407 -1.249,0.387 -1.491,-0.64 -0.375,-1.594 -0.764,-3.233 -0.764,-4.853 0.001,-2.201 0.26,-4.419 0.608,-6.597 0.23,-1.441 0.956,-2.713 1.959,-3.864 1.054,-1.211 1.485,-3.945 0.825,-3.945" /><path
       inkscape:connector-curvature="0"
       id="path839"
       style="fill:none;stroke:none;stroke-width:0.75;stroke-linecap:butt;stroke-linejoin:miter;stroke-miterlimit:10;stroke-dasharray:none;stroke-opacity:1"
       d="m 152.7542,93.034 c 0.265,1.884 -0.78,3.678 -2.079,3.661 -1.539,-0.021 -3.076,-0.225 -4.613,-0.349 -0.012,-0.114 -0.023,-0.228 -0.035,-0.342 2.588,-0.104 4.616,-1.491 6.727,-2.97 z m -19.875,-38.935 c -0.65,0.967 -1.155,2.087 -1.979,2.872 -2.441,2.322 -3.057,5.302 -3.181,8.42 -0.088,2.203 0.045,4.431 0.289,6.624 0.132,1.184 0.704,2.318 1.117,3.598 -0.074,0.033 -0.338,0.146 -0.596,0.27 -5.285,2.555 -9.996,5.916 -14.154,10.059 -2.009,2.003 -2.63,4.625 -3.049,7.254 -0.375,2.356 -0.517,4.766 -0.556,7.155 -0.051,3.053 0.098,6.11 0.182,9.164 0.011,0.393 0.149,0.781 0.227,1.171 l 0.306,-0.019 c 0.107,-1.768 0.256,-3.534 0.31,-5.303 0.103,-3.325 -0.031,-6.669 0.284,-9.972 0.214,-2.236 0.83,-4.492 1.645,-6.592 0.481,-1.241 1.595,-2.307 2.609,-3.256 3.83,-3.588 8.025,-6.738 12.892,-8.731 3.099,-1.268 6.263,-2.606 9.722,-2.694 3.044,-0.077 5.746,0.952 8.03,2.884 1.678,1.419 2.483,3.349 2.273,5.614 -0.083,0.895 -0.152,1.792 -0.232,2.687 -0.148,1.65 0.222,3.148 1.259,4.467 0.738,0.938 1.456,1.891 2.19,2.846 -2.318,1.985 -4.848,3.187 -7.928,3.066 -0.01,0.133 -0.02,0.266 -0.031,0.398 1.47,0.858 2.933,1.725 4.409,2.57 1.488,0.851 2.989,1.68 4.588,2.578 0.139,1.304 0.323,2.875 0.468,4.45 0.078,0.844 0.491,1.168 1.328,1.396 1.69,0.458 3.426,0.937 4.952,1.763 2.315,1.253 2.564,2.978 0.97,5.059 -2.42,3.158 -4.39,6.567 -6.021,10.196 -1.267,2.821 -1.492,5.665 -0.53,8.577 0.668,2.018 1.495,3.982 2.195,5.989 1.503,4.314 1.866,8.667 0.76,13.173 -0.807,3.282 -1.24,6.653 -1.911,9.97 -0.513,2.539 -1.595,4.875 -2.656,7.23 -1.408,3.123 -3.462,5.782 -5.786,8.189 -8.373,8.668 -18.196,14.896 -30.189,17.236 -9.259,1.806 -18.124,0.449 -26.638,-3.529 -9.342,-4.364 -16.961,-10.676 -22.243,-19.624 -2.701,-4.574 -4.617,-9.485 -5.726,-14.671 -0.851,-3.982 -0.365,-7.976 0.212,-11.976 0.818,-5.672 1.525,-11.365 3.603,-16.748 1.022,-2.648 2.343,-5.18 3.489,-7.782 1.981,-4.495 3.922,-9.009 5.905,-13.504 0.373,-0.847 0.827,-1.665 1.305,-2.46 1.683,-2.796 2.372,-5.887 2.552,-9.081 0.226,-4.036 0.271,-8.082 0.438,-12.122 0.107,-2.607 -0.181,-5.163 -1.14,-7.578 -0.627,-1.577 -1.528,-3.047 -2.323,-4.556 -1.884,-3.574 -3.742,-7.162 -5.689,-10.701 -0.63,-1.146 -1.525,-2.143 -2.26,-3.235 -0.613,-0.91 -1.17,-1.859 -1.751,-2.791 h -1.8 c 0.614,0.976 1.206,1.968 1.847,2.927 1.076,1.61 2.269,3.147 3.254,4.809 1.389,2.343 2.633,4.771 3.939,7.163 1.049,1.919 2.18,3.798 3.125,5.767 1.314,2.737 1.573,5.694 1.446,8.69 -0.142,3.354 -0.233,6.712 -0.481,10.058 -0.221,2.982 -0.443,5.982 -1.914,8.71 -1.18,2.187 -2.371,4.375 -3.406,6.632 -2.021,4.411 -3.779,8.949 -5.939,13.288 -2.189,4.395 -3.678,8.995 -4.604,13.764 -0.788,4.054 -1.148,8.189 -1.806,12.271 -0.676,4.191 -0.035,8.247 1.164,12.223 1.973,6.544 4.918,12.603 9.32,17.903 5.659,6.814 12.697,11.708 20.828,15.104 6.114,2.554 12.482,3.896 19.108,3.557 7.783,-0.399 15.066,-2.653 21.906,-6.383 7.065,-3.852 13.114,-8.944 18.323,-15.035 2.041,-2.386 3.355,-5.246 4.559,-8.122 1.806,-4.315 2.605,-8.904 3.456,-13.471 0.323,-1.734 0.626,-3.475 0.849,-5.225 0.571,-4.478 -0.607,-8.671 -2.156,-12.804 -0.65,-1.735 -1.284,-3.486 -1.761,-5.273 -0.461,-1.726 -0.168,-3.451 0.516,-5.1 1.569,-3.789 3.635,-7.281 6.077,-10.577 0.648,-0.876 1.11,-2.007 1.295,-3.084 0.317,-1.849 -0.73,-3.207 -2.147,-4.267 -1.565,-1.171 -3.366,-1.835 -5.264,-2.202 -0.627,-0.121 -0.861,-0.354 -0.872,-0.976 -0.023,-1.25 -0.179,-2.501 -0.146,-3.748 0.047,-1.714 -0.332,-3.214 -1.769,-4.327 1.394,-1.684 1.093,-3.325 0.049,-4.946 -0.372,-0.578 -0.737,-1.186 -1.221,-1.664 -1.679,-1.66 -2.013,-3.644 -1.641,-5.878 0.502,-3.023 -0.167,-5.748 -2.401,-7.93 -2.133,-2.083 -4.788,-3.174 -7.705,-3.548 -3.179,-0.407 -6.187,0.395 -9.105,1.593 -0.99,0.407 -1.249,0.387 -1.491,-0.64 -0.375,-1.594 -0.764,-3.233 -0.764,-4.853 0.001,-2.201 0.26,-4.419 0.608,-6.597 0.23,-1.441 0.956,-2.713 1.959,-3.864 1.054,-1.211 1.485,-3.945 0.825,-3.945 z" /><path
       inkscape:connector-curvature="0"
       id="path843"
       style="fill:#1d1d1b;fill-opacity:1;fill-rule:nonzero;stroke:none"
       d="m 152.7889,93.1366 c 0.264,1.884 -0.78,3.678 -2.08,3.661 -1.539,-0.02 -3.075,-0.224 -4.613,-0.349 -0.012,-0.114 -0.023,-0.228 -0.034,-0.341 2.587,-0.105 4.615,-1.491 6.727,-2.971 m -23.629,-17.421 c -0.075,0.034 -10.592,6.186 -14.75,10.33 -2.01,2.002 -2.631,4.624 -3.049,7.253 -0.375,2.356 -0.517,4.766 -0.557,7.155 -0.05,3.054 0.098,6.11 0.183,9.165 0.011,0.392 0.148,0.78 0.227,1.17 0.102,-0.006 0.204,-0.013 0.306,-0.019 0.106,-1.768 0.255,-3.534 0.31,-5.303 0.102,-3.325 -0.032,-6.669 0.284,-9.972 0.213,-2.236 0.829,-4.492 1.644,-6.592 0.482,-1.24 1.596,-2.307 2.609,-3.256 3.831,-3.588 8.025,-6.738 12.893,-8.731 3.098,-1.268 6.262,-2.606 9.722,-2.693 3.044,-0.077 5.745,0.951 8.029,2.883 1.678,1.419 2.484,3.349 2.273,5.614 -0.083,0.895 -0.151,1.792 -0.231,2.688 -0.148,1.649 0.222,3.148 1.259,4.466 0.738,0.938 1.456,1.892 2.189,2.847 -2.318,1.985 -4.848,3.186 -7.927,3.066 -0.011,0.132 -0.021,0.265 -0.031,0.398 1.469,0.857 2.933,1.724 4.409,2.569 1.487,0.851 2.988,1.681 4.588,2.578 0.139,1.304 0.323,2.875 0.468,4.45 0.078,0.844 0.49,1.169 1.327,1.396 1.69,0.459 3.427,0.938 4.952,1.763 2.316,1.254 2.565,2.979 0.971,5.059 -2.42,3.158 -4.39,6.567 -6.021,10.197 -1.267,2.821 -1.493,5.665 -0.53,8.577 0.667,2.017 1.494,3.981 2.194,5.989 1.504,4.313 1.867,8.666 0.76,13.172 -0.806,3.282 -1.239,6.654 -1.91,9.971 -0.514,2.538 -1.595,4.874 -2.657,7.23 -1.407,3.122 -3.461,5.781 -5.786,8.188 -8.372,8.668 -18.196,14.896 -30.188,17.236 -9.259,1.807 -18.124,0.449 -26.639,-3.529 -9.341,-4.364 -16.961,-10.676 -22.243,-19.624 -2.7,-4.574 -4.617,-9.484 -5.725,-14.671 -0.852,-3.982 -0.366,-7.976 0.212,-11.976 0.818,-5.672 1.525,-11.365 3.603,-16.747 1.022,-2.648 2.342,-5.181 3.489,-7.782 1.981,-4.496 3.922,-9.01 5.904,-13.505 0.374,-0.847 0.828,-1.665 1.306,-2.459 1.683,-2.797 2.372,-5.887 2.551,-9.082 -1.363,0.11 -1.837,4.413 -3.309,7.141 -1.179,2.187 -2.371,4.375 -3.405,6.633 -2.021,4.41 -3.78,8.948 -5.94,13.287 -2.188,4.396 -3.677,8.995 -4.604,13.764 -0.787,4.054 -1.147,8.189 -1.805,12.271 -0.676,4.191 -0.035,8.247 1.164,12.223 1.972,6.544 4.918,12.603 9.319,17.903 5.659,6.814 12.698,11.708 20.828,15.104 6.115,2.554 12.482,3.896 19.109,3.557 7.782,-0.399 15.065,-2.652 21.906,-6.382 7.064,-3.853 13.113,-8.945 18.323,-15.036 2.04,-2.386 3.355,-5.245 4.559,-8.121 1.806,-4.316 2.605,-8.905 3.456,-13.472 0.323,-1.734 0.625,-3.475 0.848,-5.224 0.572,-4.479 -0.606,-8.672 -2.155,-12.805 -0.651,-1.735 -1.284,-3.485 -1.761,-5.272 -0.461,-1.727 -0.168,-3.452 0.515,-5.101 1.57,-3.788 3.635,-7.281 6.077,-10.577 0.649,-0.875 1.111,-2.007 1.295,-3.084 0.317,-1.848 -0.729,-3.206 -2.146,-4.266 -1.566,-1.171 -3.366,-1.836 -5.264,-2.203 -0.627,-0.121 -0.861,-0.353 -0.872,-0.976 -0.024,-1.25 -0.18,-2.501 -0.146,-3.748 0.047,-1.714 -0.333,-3.214 -1.769,-4.326 1.393,-1.685 1.092,-3.326 0.049,-4.946 -0.373,-0.579 -0.738,-1.186 -1.221,-1.664 -1.679,-1.661 -2.013,-3.645 -1.642,-5.878 0.503,-3.024 -0.167,-5.748 -2.401,-7.931 -2.132,-2.083 -4.787,-3.174 -7.704,-3.547 -3.179,-0.408 -6.187,0.394 -9.106,1.593 -0.989,0.407 -3.029,0.334 -2.616,1.614" /><path
       inkscape:connector-curvature="0"
       id="path847"
       style="fill:none;stroke:none;stroke-width:0.75;stroke-linecap:butt;stroke-linejoin:miter;stroke-miterlimit:10;stroke-dasharray:none;stroke-opacity:1"
       d="m 152.7889,93.1366 c 0.264,1.884 -0.78,3.678 -2.08,3.661 -1.539,-0.02 -3.075,-0.224 -4.613,-0.349 -0.012,-0.114 -0.023,-0.228 -0.034,-0.341 2.587,-0.105 4.615,-1.491 6.727,-2.971 z m -23.629,-17.421 c -0.075,0.034 -10.592,6.186 -14.75,10.33 -2.01,2.002 -2.631,4.624 -3.049,7.253 -0.375,2.356 -0.517,4.766 -0.557,7.155 -0.05,3.054 0.098,6.11 0.183,9.165 0.011,0.392 0.148,0.78 0.227,1.17 0.102,-0.006 0.204,-0.013 0.306,-0.019 0.106,-1.768 0.255,-3.534 0.31,-5.303 0.102,-3.325 -0.032,-6.669 0.284,-9.972 0.213,-2.236 0.829,-4.492 1.644,-6.592 0.482,-1.24 1.596,-2.307 2.609,-3.256 3.831,-3.588 8.025,-6.738 12.893,-8.731 3.098,-1.268 6.262,-2.606 9.722,-2.693 3.044,-0.077 5.745,0.951 8.029,2.883 1.678,1.419 2.484,3.349 2.273,5.614 -0.083,0.895 -0.151,1.792 -0.231,2.688 -0.148,1.649 0.222,3.148 1.259,4.466 0.738,0.938 1.456,1.892 2.189,2.847 -2.318,1.985 -4.848,3.186 -7.927,3.066 -0.011,0.132 -0.021,0.265 -0.031,0.398 1.469,0.857 2.933,1.724 4.409,2.569 1.487,0.851 2.988,1.681 4.588,2.578 0.139,1.304 0.323,2.875 0.468,4.45 0.078,0.844 0.49,1.169 1.327,1.396 1.69,0.459 3.427,0.938 4.952,1.763 2.316,1.254 2.565,2.979 0.971,5.059 -2.42,3.158 -4.39,6.567 -6.021,10.197 -1.267,2.821 -1.493,5.665 -0.53,8.577 0.667,2.017 1.494,3.981 2.194,5.989 1.504,4.313 1.867,8.666 0.76,13.172 -0.806,3.282 -1.239,6.654 -1.91,9.971 -0.514,2.538 -1.595,4.874 -2.657,7.23 -1.407,3.122 -3.461,5.781 -5.786,8.188 -8.372,8.668 -18.196,14.896 -30.188,17.236 -9.259,1.807 -18.124,0.449 -26.639,-3.529 -9.341,-4.364 -16.961,-10.676 -22.243,-19.624 -2.7,-4.574 -4.617,-9.484 -5.725,-14.671 -0.852,-3.982 -0.366,-7.976 0.212,-11.976 0.818,-5.672 1.525,-11.365 3.603,-16.747 1.022,-2.648 2.342,-5.181 3.489,-7.782 1.981,-4.496 3.922,-9.01 5.904,-13.505 0.374,-0.847 0.828,-1.665 1.306,-2.459 1.683,-2.797 2.372,-5.887 2.551,-9.082 -1.363,0.11 -1.837,4.413 -3.309,7.141 -1.179,2.187 -2.371,4.375 -3.405,6.633 -2.021,4.41 -3.78,8.948 -5.94,13.287 -2.188,4.396 -3.677,8.995 -4.604,13.764 -0.787,4.054 -1.147,8.189 -1.805,12.271 -0.676,4.191 -0.035,8.247 1.164,12.223 1.972,6.544 4.918,12.603 9.319,17.903 5.659,6.814 12.698,11.708 20.828,15.104 6.115,2.554 12.482,3.896 19.109,3.557 7.782,-0.399 15.065,-2.652 21.906,-6.382 7.064,-3.853 13.113,-8.945 18.323,-15.036 2.04,-2.386 3.355,-5.245 4.559,-8.121 1.806,-4.316 2.605,-8.905 3.456,-13.472 0.323,-1.734 0.625,-3.475 0.848,-5.224 0.572,-4.479 -0.606,-8.672 -2.155,-12.805 -0.651,-1.735 -1.284,-3.485 -1.761,-5.272 -0.461,-1.727 -0.168,-3.452 0.515,-5.101 1.57,-3.788 3.635,-7.281 6.077,-10.577 0.649,-0.875 1.111,-2.007 1.295,-3.084 0.317,-1.848 -0.729,-3.206 -2.146,-4.266 -1.566,-1.171 -3.366,-1.836 -5.264,-2.203 -0.627,-0.121 -0.861,-0.353 -0.872,-0.976 -0.024,-1.25 -0.18,-2.501 -0.146,-3.748 0.047,-1.714 -0.333,-3.214 -1.769,-4.326 1.393,-1.685 1.092,-3.326 0.049,-4.946 -0.373,-0.579 -0.738,-1.186 -1.221,-1.664 -1.679,-1.661 -2.013,-3.645 -1.642,-5.878 0.503,-3.024 -0.167,-5.748 -2.401,-7.931 -2.132,-2.083 -4.787,-3.174 -7.704,-3.547 -3.179,-0.408 -6.187,0.394 -9.106,1.593 -0.989,0.407 -3.029,0.334 -2.616,1.614 z" /><path
       inkscape:connector-curvature="0"
       id="path851"
       style="fill:#b9655c;fill-opacity:1;fill-rule:nonzero;stroke:none"
       d="m 106.9164,108.4925 c 1.368,-1.471 0.541,-4.408 -1.303,-5.147 -2.128,-0.854 -3.556,-0.55 -5.062,1.2 -0.6,0.697 -1.117,1.49 -1.551,2.304 -1.805,3.382 -3.617,6.762 -5.326,10.192 -1.875,3.764 -2.819,7.73 -1.749,11.913 1.295,5.061 6.669,7.442 11.407,5.245 2.002,-0.928 3.427,-2.268 4.044,-4.461 0.586,-2.08 0.86,-4.06 0.301,-6.171 -0.194,-0.731 -0.388,-1.462 -0.583,-2.193 -0.108,0.008 -0.217,0.016 -0.325,0.024 -0.044,0.283 -0.143,0.57 -0.124,0.849 0.104,1.461 0.333,2.92 0.344,4.381 0.027,3.719 -2.863,6.94 -6.472,7.328 -3.637,0.391 -6.883,-1.97 -7.684,-5.72 -0.807,-3.773 0.027,-7.325 1.761,-10.694 1.755,-3.408 3.497,-6.825 5.353,-10.177 0.595,-1.075 1.416,-2.102 2.35,-2.895 1.462,-1.243 3.721,-0.362 4.177,1.517 0.192,0.791 0.287,1.606 0.442,2.505" /><path
       inkscape:connector-curvature="0"
       id="path855"
       style="fill:none;stroke:none;stroke-width:0.5;stroke-linecap:butt;stroke-linejoin:miter;stroke-miterlimit:10;stroke-dasharray:none;stroke-opacity:1"
       d="m 106.9164,108.4925 c 1.368,-1.471 0.541,-4.408 -1.303,-5.147 -2.128,-0.854 -3.556,-0.55 -5.062,1.2 -0.6,0.697 -1.117,1.49 -1.551,2.304 -1.805,3.382 -3.617,6.762 -5.326,10.192 -1.875,3.764 -2.819,7.73 -1.749,11.913 1.295,5.061 6.669,7.442 11.407,5.245 2.002,-0.928 3.427,-2.268 4.044,-4.461 0.586,-2.08 0.86,-4.06 0.301,-6.171 -0.194,-0.731 -0.388,-1.462 -0.583,-2.193 -0.108,0.008 -0.217,0.016 -0.325,0.024 -0.044,0.283 -0.143,0.57 -0.124,0.849 0.104,1.461 0.333,2.92 0.344,4.381 0.027,3.719 -2.863,6.94 -6.472,7.328 -3.637,0.391 -6.883,-1.97 -7.684,-5.72 -0.807,-3.773 0.027,-7.325 1.761,-10.694 1.755,-3.408 3.497,-6.825 5.353,-10.177 0.595,-1.075 1.416,-2.102 2.35,-2.895 1.462,-1.243 3.721,-0.362 4.177,1.517 0.192,0.791 0.287,1.606 0.442,2.505 z" /><path
       inkscape:connector-curvature="0"
       id="path859"
       style="fill:#b9655c;fill-opacity:1;fill-rule:nonzero;stroke:none"
       d="m 152.7127,107.5477 c 1.261,1.433 2.756,2.397 4.623,2.735 0.787,0.143 1.595,-0.279 1.559,-0.823 -0.053,-0.781 -0.664,-0.987 -1.319,-1.097 -1.58,-0.264 -3.161,-0.53 -4.863,-0.815" /><path
       inkscape:connector-curvature="0"
       id="path863"
       style="fill:#b9655c;fill-opacity:1;fill-rule:nonzero;stroke:none"
       d="m 151.41,107.2513 c -2.017,1.653 -2.428,4.711 -0.927,6.658 -0.226,-0.818 -0.545,-1.508 -0.577,-2.212 -0.034,-0.752 0.109,-1.548 0.35,-2.266 0.235,-0.702 0.691,-1.33 1.154,-2.18" /><path
       inkscape:connector-curvature="0"
       id="path867"
       style="fill:none;stroke:#b9655c;stroke-width:0.5;stroke-linecap:butt;stroke-linejoin:miter;stroke-miterlimit:10;stroke-dasharray:none;stroke-opacity:1"
       d="m 147.9862,97.516 -2.694,0.227 c 0.125,-0.041 6.623,-3.331 7.875,-5.155" /><path
       inkscape:connector-curvature="0"
       id="path871"
       style="fill:#b9655c;fill-opacity:1;fill-rule:nonzero;stroke:none"
       d="m 129.993,74.0277 0.514,0.808 -1.102,0.661 -0.367,-1.322" /><path
       inkscape:connector-curvature="0"
       id="path875"
       style="fill:#b9655c;fill-opacity:1;fill-rule:nonzero;stroke:none"
       d="m 79.243,94.8836 -0.077,0.75 -0.643,-0.716" /><path
       inkscape:connector-curvature="0"
       id="path879"
       style="fill:#b9655c;fill-opacity:1;fill-rule:nonzero;stroke:none"
       d="m 215.4075,96.0042 c -0.011,0.114 -0.022,0.228 -0.034,0.342 -1.538,0.124 -3.074,0.328 -4.613,0.348 -1.3,0.018 -2.344,-1.776 -2.08,-3.66 2.112,1.479 4.14,2.866 6.727,2.97 m 13.974,-37.96 c 1.002,1.15 1.728,2.422 1.958,3.863 0.349,2.179 0.607,4.397 0.608,6.598 0,1.62 -0.389,3.259 -0.764,4.853 -0.241,1.027 -0.501,1.047 -1.49,0.64 -2.919,-1.199 -5.927,-2 -9.106,-1.593 -2.917,0.373 -5.572,1.465 -7.704,3.548 -2.234,2.182 -2.904,4.907 -2.401,7.93 0.371,2.234 0.037,4.218 -1.642,5.878 -0.483,0.478 -0.849,1.086 -1.221,1.664 -1.044,1.621 -1.345,3.262 0.049,4.946 -1.436,1.112 -1.816,2.612 -1.769,4.327 0.034,1.246 -0.122,2.497 -0.146,3.748 -0.012,0.622 -0.245,0.855 -0.872,0.976 -1.898,0.367 -3.698,1.031 -5.264,2.202 -1.417,1.06 -2.463,2.418 -2.147,4.267 0.185,1.076 0.647,2.208 1.296,3.084 2.442,3.296 4.507,6.788 6.077,10.576 0.683,1.65 0.976,3.375 0.515,5.101 -0.477,1.787 -1.11,3.538 -1.761,5.272 -1.549,4.134 -2.727,8.327 -2.155,12.805 0.223,1.75 0.525,3.491 0.848,5.225 0.851,4.567 1.65,9.156 3.456,13.471 1.204,2.876 2.519,5.736 4.559,8.121 5.21,6.091 11.259,11.184 18.323,15.036 6.841,3.73 14.124,5.984 21.906,6.382 6.627,0.34 12.994,-1.002 19.109,-3.556 8.13,-3.396 15.168,-8.29 20.827,-15.105 4.402,-5.3 7.347,-11.359 9.321,-17.903 1.198,-3.975 1.84,-8.031 1.163,-12.223 -0.658,-4.081 -1.018,-8.216 -1.805,-12.271 -0.927,-4.768 -2.416,-9.368 -4.604,-13.763 -2.16,-4.34 -3.918,-8.877 -5.94,-13.288 -1.035,-2.257 -2.226,-4.445 -3.405,-6.632 -1.472,-2.728 -1.694,-5.728 -1.915,-8.71 -0.247,-3.346 -0.339,-6.704 -0.481,-10.058 -0.126,-2.996 0.132,-5.953 1.447,-8.69 0.944,-1.969 2.076,-3.848 3.124,-5.767 1.306,-2.392 2.551,-4.82 3.939,-7.163 0.986,-1.662 2.179,-3.2 3.254,-4.81 0.641,-0.959 1.234,-1.95 1.848,-2.926 h -1.801 c -0.581,0.931 -1.138,1.881 -1.75,2.791 -0.735,1.092 -1.631,2.089 -2.261,3.235 -1.946,3.539 -3.804,7.127 -5.688,10.701 -0.796,1.509 -1.697,2.978 -2.323,4.555 -0.959,2.416 -1.248,4.972 -1.14,7.579 0.167,4.04 0.212,8.086 0.437,12.122 0.18,3.194 0.87,6.284 2.552,9.081 0.479,0.795 0.932,1.612 1.306,2.46 1.982,4.495 3.923,9.008 5.904,13.504 1.147,2.602 2.467,5.134 3.489,7.782 2.078,5.383 2.785,11.075 3.603,16.748 0.577,4 1.063,7.993 0.213,11.975 -1.11,5.187 -3.026,10.098 -5.727,14.672 -5.282,8.948 -12.9,15.26 -22.243,19.624 -8.514,3.977 -17.379,5.335 -26.638,3.529 -11.992,-2.34 -21.817,-8.568 -30.188,-17.237 -2.325,-2.406 -4.379,-5.066 -5.786,-8.188 -1.062,-2.356 -2.143,-4.692 -2.657,-7.23 -0.671,-3.317 -1.104,-6.689 -1.91,-9.97 -1.108,-4.506 -0.744,-8.859 0.76,-13.173 0.699,-2.007 1.526,-3.971 2.193,-5.989 0.963,-2.912 0.738,-5.756 -0.529,-8.577 -1.631,-3.63 -3.601,-7.038 -6.021,-10.196 -1.595,-2.081 -1.345,-3.806 0.971,-5.06 1.525,-0.825 3.262,-1.304 4.951,-1.763 0.837,-0.227 1.25,-0.551 1.328,-1.395 0.145,-1.575 0.329,-3.147 0.468,-4.45 1.6,-0.898 3.1,-1.727 4.588,-2.579 1.476,-0.844 2.94,-1.711 4.409,-2.569 -0.01,-0.132 -0.02,-0.265 -0.031,-0.398 -3.079,0.12 -5.609,-1.081 -7.927,-3.066 0.733,-0.955 1.451,-1.908 2.189,-2.846 1.037,-1.319 1.407,-2.817 1.259,-4.467 -0.08,-0.896 -0.148,-1.792 -0.232,-2.688 -0.21,-2.264 0.596,-4.194 2.274,-5.613 2.283,-1.932 4.985,-2.961 8.029,-2.884 3.46,0.088 6.624,1.426 9.722,2.694 4.868,1.993 9.062,5.143 12.893,8.731 1.013,0.949 2.127,2.015 2.609,3.255 0.815,2.101 1.431,4.356 1.644,6.593 0.316,3.302 0.182,6.647 0.284,9.971 0.055,1.769 0.204,3.536 0.31,5.304 l 0.306,0.019 c 0.079,-0.39 0.216,-0.779 0.227,-1.171 0.085,-3.054 0.233,-6.111 0.183,-9.164 -0.04,-2.389 -0.182,-4.799 -0.557,-7.156 -0.418,-2.628 -1.039,-5.25 -3.049,-7.253 -4.158,-4.143 -8.869,-7.504 -14.154,-10.059 -0.258,-0.125 -0.521,-0.237 -0.596,-0.27 0.413,-1.28 0.986,-2.415 1.117,-3.598 0.244,-2.193 0.377,-4.421 0.29,-6.624 -0.125,-3.118 -0.74,-6.098 -3.182,-8.421 -0.824,-0.784 -1.328,-1.904 -1.979,-2.871 -0.66,0 -0.23,2.734 0.826,3.945" /><path
       inkscape:connector-curvature="0"
       id="path883"
       style="fill:none;stroke:none;stroke-width:0.75;stroke-linecap:butt;stroke-linejoin:miter;stroke-miterlimit:10;stroke-dasharray:none;stroke-opacity:1"
       d="m 215.4075,96.0042 c -0.011,0.114 -0.022,0.228 -0.034,0.342 -1.538,0.124 -3.074,0.328 -4.613,0.348 -1.3,0.018 -2.344,-1.776 -2.08,-3.66 2.112,1.479 4.14,2.866 6.727,2.97 z m 13.974,-37.96 c 1.002,1.15 1.728,2.422 1.958,3.863 0.349,2.179 0.607,4.397 0.608,6.598 0,1.62 -0.389,3.259 -0.764,4.853 -0.241,1.027 -0.501,1.047 -1.49,0.64 -2.919,-1.199 -5.927,-2 -9.106,-1.593 -2.917,0.373 -5.572,1.465 -7.704,3.548 -2.234,2.182 -2.904,4.907 -2.401,7.93 0.371,2.234 0.037,4.218 -1.642,5.878 -0.483,0.478 -0.849,1.086 -1.221,1.664 -1.044,1.621 -1.345,3.262 0.049,4.946 -1.436,1.112 -1.816,2.612 -1.769,4.327 0.034,1.246 -0.122,2.497 -0.146,3.748 -0.012,0.622 -0.245,0.855 -0.872,0.976 -1.898,0.367 -3.698,1.031 -5.264,2.202 -1.417,1.06 -2.463,2.418 -2.147,4.267 0.185,1.076 0.647,2.208 1.296,3.084 2.442,3.296 4.507,6.788 6.077,10.576 0.683,1.65 0.976,3.375 0.515,5.101 -0.477,1.787 -1.11,3.538 -1.761,5.272 -1.549,4.134 -2.727,8.327 -2.155,12.805 0.223,1.75 0.525,3.491 0.848,5.225 0.851,4.567 1.65,9.156 3.456,13.471 1.204,2.876 2.519,5.736 4.559,8.121 5.21,6.091 11.259,11.184 18.323,15.036 6.841,3.73 14.124,5.984 21.906,6.382 6.627,0.34 12.994,-1.002 19.109,-3.556 8.13,-3.396 15.168,-8.29 20.827,-15.105 4.402,-5.3 7.347,-11.359 9.321,-17.903 1.198,-3.975 1.84,-8.031 1.163,-12.223 -0.658,-4.081 -1.018,-8.216 -1.805,-12.271 -0.927,-4.768 -2.416,-9.368 -4.604,-13.763 -2.16,-4.34 -3.918,-8.877 -5.94,-13.288 -1.035,-2.257 -2.226,-4.445 -3.405,-6.632 -1.472,-2.728 -1.694,-5.728 -1.915,-8.71 -0.247,-3.346 -0.339,-6.704 -0.481,-10.058 -0.126,-2.996 0.132,-5.953 1.447,-8.69 0.944,-1.969 2.076,-3.848 3.124,-5.767 1.306,-2.392 2.551,-4.82 3.939,-7.163 0.986,-1.662 2.179,-3.2 3.254,-4.81 0.641,-0.959 1.234,-1.95 1.848,-2.926 h -1.801 c -0.581,0.931 -1.138,1.881 -1.75,2.791 -0.735,1.092 -1.631,2.089 -2.261,3.235 -1.946,3.539 -3.804,7.127 -5.688,10.701 -0.796,1.509 -1.697,2.978 -2.323,4.555 -0.959,2.416 -1.248,4.972 -1.14,7.579 0.167,4.04 0.212,8.086 0.437,12.122 0.18,3.194 0.87,6.284 2.552,9.081 0.479,0.795 0.932,1.612 1.306,2.46 1.982,4.495 3.923,9.008 5.904,13.504 1.147,2.602 2.467,5.134 3.489,7.782 2.078,5.383 2.785,11.075 3.603,16.748 0.577,4 1.063,7.993 0.213,11.975 -1.11,5.187 -3.026,10.098 -5.727,14.672 -5.282,8.948 -12.9,15.26 -22.243,19.624 -8.514,3.977 -17.379,5.335 -26.638,3.529 -11.992,-2.34 -21.817,-8.568 -30.188,-17.237 -2.325,-2.406 -4.379,-5.066 -5.786,-8.188 -1.062,-2.356 -2.143,-4.692 -2.657,-7.23 -0.671,-3.317 -1.104,-6.689 -1.91,-9.97 -1.108,-4.506 -0.744,-8.859 0.76,-13.173 0.699,-2.007 1.526,-3.971 2.193,-5.989 0.963,-2.912 0.738,-5.756 -0.529,-8.577 -1.631,-3.63 -3.601,-7.038 -6.021,-10.196 -1.595,-2.081 -1.345,-3.806 0.971,-5.06 1.525,-0.825 3.262,-1.304 4.951,-1.763 0.837,-0.227 1.25,-0.551 1.328,-1.395 0.145,-1.575 0.329,-3.147 0.468,-4.45 1.6,-0.898 3.1,-1.727 4.588,-2.579 1.476,-0.844 2.94,-1.711 4.409,-2.569 -0.01,-0.132 -0.02,-0.265 -0.031,-0.398 -3.079,0.12 -5.609,-1.081 -7.927,-3.066 0.733,-0.955 1.451,-1.908 2.189,-2.846 1.037,-1.319 1.407,-2.817 1.259,-4.467 -0.08,-0.896 -0.148,-1.792 -0.232,-2.688 -0.21,-2.264 0.596,-4.194 2.274,-5.613 2.283,-1.932 4.985,-2.961 8.029,-2.884 3.46,0.088 6.624,1.426 9.722,2.694 4.868,1.993 9.062,5.143 12.893,8.731 1.013,0.949 2.127,2.015 2.609,3.255 0.815,2.101 1.431,4.356 1.644,6.593 0.316,3.302 0.182,6.647 0.284,9.971 0.055,1.769 0.204,3.536 0.31,5.304 l 0.306,0.019 c 0.079,-0.39 0.216,-0.779 0.227,-1.171 0.085,-3.054 0.233,-6.111 0.183,-9.164 -0.04,-2.389 -0.182,-4.799 -0.557,-7.156 -0.418,-2.628 -1.039,-5.25 -3.049,-7.253 -4.158,-4.143 -8.869,-7.504 -14.154,-10.059 -0.258,-0.125 -0.521,-0.237 -0.596,-0.27 0.413,-1.28 0.986,-2.415 1.117,-3.598 0.244,-2.193 0.377,-4.421 0.29,-6.624 -0.125,-3.118 -0.74,-6.098 -3.182,-8.421 -0.824,-0.784 -1.328,-1.904 -1.979,-2.871 -0.66,0 -0.23,2.734 0.826,3.945 z" /><path
       inkscape:connector-curvature="0"
       id="path887"
       style="fill:#1d1d1b;fill-opacity:1;fill-rule:nonzero;stroke:none"
       d="m 215.3734,96.1073 c -0.011,0.114 -0.023,0.228 -0.034,0.341 -1.538,0.125 -3.074,0.329 -4.613,0.349 -1.3,0.017 -2.344,-1.777 -2.08,-3.661 2.112,1.48 4.14,2.867 6.727,2.971 m 14.286,-22.006 c -2.919,-1.199 -5.927,-2 -9.106,-1.593 -2.917,0.373 -5.572,1.465 -7.704,3.548 -2.235,2.182 -2.904,4.906 -2.401,7.93 0.371,2.234 0.037,4.217 -1.642,5.878 -0.483,0.478 -0.849,1.085 -1.221,1.664 -1.044,1.621 -1.345,3.262 0.049,4.946 -1.436,1.112 -1.816,2.612 -1.769,4.326 0.034,1.247 -0.122,2.498 -0.146,3.748 -0.012,0.623 -0.245,0.855 -0.872,0.976 -1.898,0.368 -3.698,1.032 -5.264,2.203 -1.417,1.06 -2.463,2.418 -2.147,4.267 0.185,1.076 0.647,2.208 1.296,3.084 2.442,3.296 4.507,6.788 6.077,10.576 0.683,1.649 0.976,3.374 0.515,5.101 -0.477,1.787 -1.11,3.538 -1.761,5.272 -1.549,4.134 -2.727,8.326 -2.155,12.805 0.223,1.749 0.525,3.49 0.848,5.225 0.851,4.567 1.65,9.155 3.456,13.471 1.204,2.876 2.518,5.736 4.559,8.121 5.209,6.091 11.258,11.184 18.323,15.036 6.841,3.73 14.123,5.984 21.906,6.382 6.627,0.339 12.994,-1.002 19.108,-3.557 8.131,-3.396 15.169,-8.29 20.828,-15.104 4.402,-5.3 7.347,-11.359 9.321,-17.903 1.198,-3.976 1.839,-8.031 1.163,-12.223 -0.658,-4.082 -1.018,-8.217 -1.806,-12.271 -0.926,-4.769 -2.415,-9.368 -4.603,-13.763 -2.16,-4.34 -3.919,-8.877 -5.94,-13.288 -1.035,-2.257 -2.226,-4.445 -3.406,-6.632 -1.471,-2.729 -1.945,-7.031 -3.309,-7.141 0.18,3.194 0.869,6.284 2.552,9.081 0.479,0.795 0.932,1.612 1.306,2.46 1.982,4.495 3.923,9.008 5.904,13.504 1.147,2.602 2.467,5.134 3.489,7.782 2.078,5.383 2.785,11.075 3.603,16.747 0.577,4 1.063,7.994 0.213,11.976 -1.11,5.187 -3.026,10.098 -5.727,14.672 -5.282,8.948 -12.901,15.26 -22.243,19.623 -8.514,3.978 -17.379,5.336 -26.638,3.53 -11.992,-2.34 -21.817,-8.569 -30.188,-17.237 -2.325,-2.407 -4.379,-5.066 -5.786,-8.188 -1.062,-2.356 -2.144,-4.692 -2.657,-7.23 -0.671,-3.317 -1.104,-6.689 -1.911,-9.97 -1.107,-4.506 -0.743,-8.859 0.761,-13.173 0.699,-2.008 1.526,-3.971 2.193,-5.989 0.963,-2.912 0.738,-5.756 -0.529,-8.577 -1.631,-3.63 -3.601,-7.038 -6.021,-10.196 -1.595,-2.081 -1.345,-3.806 0.971,-5.06 1.525,-0.825 3.262,-1.304 4.951,-1.763 0.837,-0.227 1.25,-0.552 1.328,-1.396 0.145,-1.574 0.329,-3.146 0.468,-4.449 1.6,-0.898 3.1,-1.727 4.588,-2.579 1.476,-0.845 2.94,-1.712 4.409,-2.569 -0.011,-0.133 -0.02,-0.265 -0.031,-0.398 -3.079,0.12 -5.609,-1.081 -7.927,-3.066 0.733,-0.955 1.451,-1.908 2.189,-2.846 1.037,-1.319 1.407,-2.818 1.259,-4.467 -0.08,-0.896 -0.149,-1.793 -0.232,-2.688 -0.21,-2.264 0.596,-4.195 2.274,-5.614 2.283,-1.932 4.985,-2.96 8.029,-2.883 3.46,0.088 6.624,1.425 9.722,2.694 4.868,1.992 9.062,5.143 12.893,8.731 1.013,0.949 2.127,2.015 2.609,3.255 0.815,2.101 1.431,4.356 1.644,6.593 0.315,3.302 0.182,6.646 0.284,9.971 0.055,1.769 0.204,3.536 0.31,5.303 l 0.306,0.019 c 0.079,-0.39 0.216,-0.778 0.227,-1.17 0.084,-3.054 0.233,-6.111 0.183,-9.164 -0.04,-2.39 -0.182,-4.8 -0.557,-7.156 -0.418,-2.628 -1.039,-5.251 -3.049,-7.253 -4.158,-4.144 -14.675,-10.296 -14.75,-10.33 0.413,-1.28 -1.627,-1.207 -2.616,-1.614" /><path
       inkscape:connector-curvature="0"
       id="path891"
       style="fill:none;stroke:none;stroke-width:0.75;stroke-linecap:butt;stroke-linejoin:miter;stroke-miterlimit:10;stroke-dasharray:none;stroke-opacity:1"
       d="m 215.3734,96.1073 c -0.011,0.114 -0.023,0.228 -0.034,0.341 -1.538,0.125 -3.074,0.329 -4.613,0.349 -1.3,0.017 -2.344,-1.777 -2.08,-3.661 2.112,1.48 4.14,2.867 6.727,2.971 z m 14.286,-22.006 c -2.919,-1.199 -5.927,-2 -9.106,-1.593 -2.917,0.373 -5.572,1.465 -7.704,3.548 -2.235,2.182 -2.904,4.906 -2.401,7.93 0.371,2.234 0.037,4.217 -1.642,5.878 -0.483,0.478 -0.849,1.085 -1.221,1.664 -1.044,1.621 -1.345,3.262 0.049,4.946 -1.436,1.112 -1.816,2.612 -1.769,4.326 0.034,1.247 -0.122,2.498 -0.146,3.748 -0.012,0.623 -0.245,0.855 -0.872,0.976 -1.898,0.368 -3.698,1.032 -5.264,2.203 -1.417,1.06 -2.463,2.418 -2.147,4.267 0.185,1.076 0.647,2.208 1.296,3.084 2.442,3.296 4.507,6.788 6.077,10.576 0.683,1.649 0.976,3.374 0.515,5.101 -0.477,1.787 -1.11,3.538 -1.761,5.272 -1.549,4.134 -2.727,8.326 -2.155,12.805 0.223,1.749 0.525,3.49 0.848,5.225 0.851,4.567 1.65,9.155 3.456,13.471 1.204,2.876 2.518,5.736 4.559,8.121 5.209,6.091 11.258,11.184 18.323,15.036 6.841,3.73 14.123,5.984 21.906,6.382 6.627,0.339 12.994,-1.002 19.108,-3.557 8.131,-3.396 15.169,-8.29 20.828,-15.104 4.402,-5.3 7.347,-11.359 9.321,-17.903 1.198,-3.976 1.839,-8.031 1.163,-12.223 -0.658,-4.082 -1.018,-8.217 -1.806,-12.271 -0.926,-4.769 -2.415,-9.368 -4.603,-13.763 -2.16,-4.34 -3.919,-8.877 -5.94,-13.288 -1.035,-2.257 -2.226,-4.445 -3.406,-6.632 -1.471,-2.729 -1.945,-7.031 -3.309,-7.141 0.18,3.194 0.869,6.284 2.552,9.081 0.479,0.795 0.932,1.612 1.306,2.46 1.982,4.495 3.923,9.008 5.904,13.504 1.147,2.602 2.467,5.134 3.489,7.782 2.078,5.383 2.785,11.075 3.603,16.747 0.577,4 1.063,7.994 0.213,11.976 -1.11,5.187 -3.026,10.098 -5.727,14.672 -5.282,8.948 -12.901,15.26 -22.243,19.623 -8.514,3.978 -17.379,5.336 -26.638,3.53 -11.992,-2.34 -21.817,-8.569 -30.188,-17.237 -2.325,-2.407 -4.379,-5.066 -5.786,-8.188 -1.062,-2.356 -2.144,-4.692 -2.657,-7.23 -0.671,-3.317 -1.104,-6.689 -1.911,-9.97 -1.107,-4.506 -0.743,-8.859 0.761,-13.173 0.699,-2.008 1.526,-3.971 2.193,-5.989 0.963,-2.912 0.738,-5.756 -0.529,-8.577 -1.631,-3.63 -3.601,-7.038 -6.021,-10.196 -1.595,-2.081 -1.345,-3.806 0.971,-5.06 1.525,-0.825 3.262,-1.304 4.951,-1.763 0.837,-0.227 1.25,-0.552 1.328,-1.396 0.145,-1.574 0.329,-3.146 0.468,-4.449 1.6,-0.898 3.1,-1.727 4.588,-2.579 1.476,-0.845 2.94,-1.712 4.409,-2.569 -0.011,-0.133 -0.02,-0.265 -0.031,-0.398 -3.079,0.12 -5.609,-1.081 -7.927,-3.066 0.733,-0.955 1.451,-1.908 2.189,-2.846 1.037,-1.319 1.407,-2.818 1.259,-4.467 -0.08,-0.896 -0.149,-1.793 -0.232,-2.688 -0.21,-2.264 0.596,-4.195 2.274,-5.614 2.283,-1.932 4.985,-2.96 8.029,-2.883 3.46,0.088 6.624,1.425 9.722,2.694 4.868,1.992 9.062,5.143 12.893,8.731 1.013,0.949 2.127,2.015 2.609,3.255 0.815,2.101 1.431,4.356 1.644,6.593 0.315,3.302 0.182,6.646 0.284,9.971 0.055,1.769 0.204,3.536 0.31,5.303 l 0.306,0.019 c 0.079,-0.39 0.216,-0.778 0.227,-1.17 0.084,-3.054 0.233,-6.111 0.183,-9.164 -0.04,-2.39 -0.182,-4.8 -0.557,-7.156 -0.418,-2.628 -1.039,-5.251 -3.049,-7.253 -4.158,-4.144 -14.675,-10.296 -14.75,-10.33 0.413,-1.28 -1.627,-1.207 -2.616,-1.614 z" /><path
       inkscape:connector-curvature="0"
       id="path895"
       style="fill:#b9655c;fill-opacity:1;fill-rule:nonzero;stroke:none"
       d="m 254.5189,108.4925 c -1.368,-1.471 -0.541,-4.408 1.303,-5.147 2.128,-0.854 3.555,-0.55 5.062,1.2 0.6,0.697 1.116,1.49 1.551,2.304 1.805,3.382 3.617,6.762 5.326,10.192 1.874,3.764 2.819,7.73 1.748,11.913 -1.294,5.061 -6.668,7.442 -11.406,5.245 -2.002,-0.928 -3.427,-2.268 -4.044,-4.461 -0.586,-2.08 -0.86,-4.06 -0.301,-6.171 0.194,-0.731 0.388,-1.462 0.582,-2.193 0.109,0.008 0.218,0.016 0.326,0.024 0.044,0.283 0.143,0.57 0.124,0.849 -0.105,1.461 -0.334,2.92 -0.344,4.381 -0.027,3.719 2.863,6.94 6.472,7.328 3.636,0.391 6.882,-1.97 7.684,-5.72 0.807,-3.773 -0.027,-7.325 -1.762,-10.694 -1.754,-3.408 -3.496,-6.825 -5.352,-10.177 -0.595,-1.075 -1.416,-2.102 -2.35,-2.895 -1.462,-1.243 -3.721,-0.362 -4.178,1.517 -0.191,0.791 -0.286,1.606 -0.441,2.505" /><path
       inkscape:connector-curvature="0"
       id="path899"
       style="fill:none;stroke:none;stroke-width:0.5;stroke-linecap:butt;stroke-linejoin:miter;stroke-miterlimit:10;stroke-dasharray:none;stroke-opacity:1"
       d="m 254.5189,108.4925 c -1.368,-1.471 -0.541,-4.408 1.303,-5.147 2.128,-0.854 3.555,-0.55 5.062,1.2 0.6,0.697 1.116,1.49 1.551,2.304 1.805,3.382 3.617,6.762 5.326,10.192 1.874,3.764 2.819,7.73 1.748,11.913 -1.294,5.061 -6.668,7.442 -11.406,5.245 -2.002,-0.928 -3.427,-2.268 -4.044,-4.461 -0.586,-2.08 -0.86,-4.06 -0.301,-6.171 0.194,-0.731 0.388,-1.462 0.582,-2.193 0.109,0.008 0.218,0.016 0.326,0.024 0.044,0.283 0.143,0.57 0.124,0.849 -0.105,1.461 -0.334,2.92 -0.344,4.381 -0.027,3.719 2.863,6.94 6.472,7.328 3.636,0.391 6.882,-1.97 7.684,-5.72 0.807,-3.773 -0.027,-7.325 -1.762,-10.694 -1.754,-3.408 -3.496,-6.825 -5.352,-10.177 -0.595,-1.075 -1.416,-2.102 -2.35,-2.895 -1.462,-1.243 -3.721,-0.362 -4.178,1.517 -0.191,0.791 -0.286,1.606 -0.441,2.505 z" /><path
       inkscape:connector-curvature="0"
       id="path903"
       style="fill:#b9655c;fill-opacity:1;fill-rule:nonzero;stroke:none"
       d="m 208.7225,107.5477 c -1.262,1.433 -2.756,2.397 -4.623,2.735 -0.787,0.143 -1.595,-0.279 -1.559,-0.823 0.052,-0.781 0.663,-0.987 1.318,-1.097 1.581,-0.264 3.162,-0.53 4.864,-0.815" /><path
       inkscape:connector-curvature="0"
       id="path907"
       style="fill:#b9655c;fill-opacity:1;fill-rule:nonzero;stroke:none"
       d="m 210.0252,107.2513 c 2.017,1.653 2.428,4.711 0.927,6.658 0.226,-0.818 0.545,-1.508 0.576,-2.212 0.034,-0.752 -0.108,-1.548 -0.349,-2.266 -0.235,-0.702 -0.692,-1.33 -1.154,-2.18" /><path
       inkscape:connector-curvature="0"
       id="path911"
       style="fill:none;stroke:#b9655c;stroke-width:0.5;stroke-linecap:butt;stroke-linejoin:miter;stroke-miterlimit:10;stroke-dasharray:none;stroke-opacity:1"
       d="m 213.4491,97.516 2.694,0.227 c -0.125,-0.041 -6.623,-3.331 -7.875,-5.155" /><path
       inkscape:connector-curvature="0"
       id="path915"
       style="fill:#b9655c;fill-opacity:1;fill-rule:nonzero;stroke:none"
       d="m 231.4422,74.0277 -0.515,0.808 1.102,0.661 0.368,-1.322" /><path
       inkscape:connector-curvature="0"
       id="path919"
       style="fill:#b9655c;fill-opacity:1;fill-rule:nonzero;stroke:none"
       d="m 282.1917,94.8836 0.077,0.75 0.643,-0.716" /><path
       inkscape:connector-curvature="0"
       id="path995"
       style="fill:none;stroke:#1d1d1b;stroke-width:0.5;stroke-linecap:butt;stroke-linejoin:miter;stroke-miterlimit:10;stroke-dasharray:none;stroke-opacity:1"
       d="m 108.4852,195.7127 -6.046,-61.177 c 0,0 1.39,-0.467 2.205,-1.282 1.076,-1.077 1.517,-1.749 1.692,-1.794 3.489,-0.922 23.641,-5.709 23.641,-5.709 0,0 1.45,15.645 10.606,17.583 9.156,1.937 15.781,-3.688 16.875,-4.75" /><path
       inkscape:connector-curvature="0"
       id="path999"
       style="fill:none;stroke:#1d1d1b;stroke-width:0.5;stroke-linecap:butt;stroke-linejoin:miter;stroke-miterlimit:10;stroke-dasharray:none;stroke-opacity:1"
       d="m 156.4583,123.5833 c 0,0 -1.125,-3.875 -9.688,-3.75 -8.562,0.125 -13.961,2.459 -16.793,5.917" /><path
       inkscape:connector-curvature="0"
       id="path1003"
       style="fill:none;stroke:#1d1d1b;stroke-width:0.5;stroke-linecap:butt;stroke-linejoin:miter;stroke-miterlimit:10;stroke-dasharray:none;stroke-opacity:1"
       d="m 102.4901,134.5872 c 0,0 -3.45,0.537 -5.99,-0.42 -3.839,-1.447 -4.648,-4.881 -5.122,-7.824 -0.602,-3.73 1.427,-7.005 2.705,-9.76 1.694,-3.649 3.168,-6.634 4.167,-8.25 1.137,-1.839 2.782,-3.859 3.471,-4.514 0.847,-0.805 2.13,-0.977 3.022,-0.805" /><path
       inkscape:connector-curvature="0"
       id="path1007"
       style="fill:none;stroke:#1d1d1b;stroke-width:0.5;stroke-linecap:butt;stroke-linejoin:miter;stroke-miterlimit:10;stroke-dasharray:none;stroke-opacity:1"
       d="m 78.0833,99.8333 c 0,0 0.571,-2.651 0.508,-4.401 0,0 3.305,2.651 5.617,3.401 2.313,0.75 7.125,2.125 13.062,1.062 5.938,-1.062 13.126,-3.312 13.876,-4 l -0.25,6.251" /><path
       inkscape:connector-curvature="0"
       id="path1011"
       style="fill:none;stroke:#1d1d1b;stroke-width:0.5;stroke-linecap:butt;stroke-linejoin:miter;stroke-miterlimit:10;stroke-dasharray:none;stroke-opacity:1"
       d="m 111.1458,95.8958 c 0,0 0.259,-4.088 0.847,-5.852 0.588,-1.763 3.453,-5.29 5.29,-6.833 1.837,-1.542 5.584,-3.6 7.347,-4.702 1.763,-1.102 4.962,-2.763 4.962,-2.763" /><path
       inkscape:connector-curvature="0"
       id="path1015"
       style="fill:none;stroke:#b9655c;stroke-width:0.60000002;stroke-linecap:butt;stroke-linejoin:miter;stroke-miterlimit:10;stroke-dasharray:none;stroke-opacity:1"
       d="m 153.9359,100.7308 c 0,0 -0.298,-0.133 -2.536,-1.404 -2.158,-1.225 -2.816,-1.806 -3.419,-1.884 -0.453,-0.058 -2.415,0.147 -2.415,0.147 h -0.075" /><path
       inkscape:connector-curvature="0"
       id="path1019"
       style="fill:none;stroke:#1d1d1b;stroke-width:0.5;stroke-linecap:butt;stroke-linejoin:miter;stroke-miterlimit:10;stroke-dasharray:none;stroke-opacity:1"
       d="m 152.7352,96.4041 c 0,0 -0.793,1.038 -1.709,0.977 -0.916,-0.061 -3.054,-0.061 -4.52,0.061 -1.465,0.123 -41.798,5.579 -41.798,5.579 0,0 1.535,0.165 2.085,1.386 0.549,1.221 0.692,2.684 0.63,3.539 -0.061,0.855 0.55,2.015 -0.183,2.931 -0.733,0.916 -1.099,2.015 -1.343,2.381 -0.245,0.367 -1.14,1.539 -1.058,2.174 0.081,0.636 0.376,1.978 -0.159,2.416 -0.688,0.563 -1.104,1.945 -0.859,2.433 0.244,0.489 0.793,1.344 1.587,1.466 0.794,0.122 1.551,0.095 1.988,0.758 0.422,0.641 1.031,2.958 0.875,4.609 -0.172,1.813 -2.13,4.572 -2.219,4.641" /><path
       inkscape:connector-curvature="0"
       id="path1023"
       style="fill:none;stroke:#1d1d1b;stroke-width:0.5;stroke-linecap:butt;stroke-linejoin:miter;stroke-miterlimit:10;stroke-dasharray:none;stroke-opacity:1"
       d="m 252.9495,195.7127 6.046,-61.177 c 0,0 -1.39,-0.467 -2.204,-1.282 -1.077,-1.077 -1.518,-1.749 -1.693,-1.794 -3.489,-0.922 -23.641,-5.709 -23.641,-5.709 0,0 -1.449,15.645 -10.606,17.583 -9.156,1.937 -15.781,-3.688 -16.875,-4.75" /><path
       inkscape:connector-curvature="0"
       id="path1027"
       style="fill:none;stroke:#1d1d1b;stroke-width:0.5;stroke-linecap:butt;stroke-linejoin:miter;stroke-miterlimit:10;stroke-dasharray:none;stroke-opacity:1"
       d="m 204.9769,123.5833 c 0,0 1.125,-3.875 9.688,-3.75 8.562,0.125 13.961,2.459 16.792,5.917" /><path
       inkscape:connector-curvature="0"
       id="path1031"
       style="fill:none;stroke:#1d1d1b;stroke-width:0.5;stroke-linecap:butt;stroke-linejoin:miter;stroke-miterlimit:10;stroke-dasharray:none;stroke-opacity:1"
       d="m 258.9447,134.5872 c 0,0 3.45,0.537 5.99,-0.42 3.839,-1.447 4.648,-4.881 5.122,-7.824 0.602,-3.73 -1.426,-7.005 -2.705,-9.76 -1.694,-3.649 -3.168,-6.634 -4.167,-8.25 -1.136,-1.839 -2.782,-3.859 -3.47,-4.514 -0.848,-0.805 -2.131,-0.977 -3.023,-0.805" /><path
       inkscape:connector-curvature="0"
       id="path1035"
       style="fill:none;stroke:#1d1d1b;stroke-width:0.5;stroke-linecap:butt;stroke-linejoin:miter;stroke-miterlimit:10;stroke-dasharray:none;stroke-opacity:1"
       d="m 283.3519,99.8333 c 0,0 -0.571,-2.651 -0.509,-4.401 0,0 -3.304,2.651 -5.616,3.401 -2.313,0.75 -7.125,2.125 -13.062,1.062 -5.938,-1.062 -13.126,-3.312 -13.876,-4 l 0.25,6.251" /><path
       inkscape:connector-curvature="0"
       id="path1039"
       style="fill:none;stroke:#1d1d1b;stroke-width:0.5;stroke-linecap:butt;stroke-linejoin:miter;stroke-miterlimit:10;stroke-dasharray:none;stroke-opacity:1"
       d="m 250.2894,95.8958 c 0,0 -0.259,-4.088 -0.847,-5.852 -0.588,-1.763 -3.453,-5.29 -5.29,-6.833 -1.837,-1.542 -5.584,-3.6 -7.347,-4.702 -1.763,-1.102 -4.962,-2.763 -4.962,-2.763" /><path
       inkscape:connector-curvature="0"
       id="path1043"
       style="fill:none;stroke:#b9655c;stroke-width:0.60000002;stroke-linecap:butt;stroke-linejoin:miter;stroke-miterlimit:10;stroke-dasharray:none;stroke-opacity:1"
       d="m 207.4989,100.7308 c 0,0 0.299,-0.133 2.537,-1.404 2.158,-1.225 2.816,-1.806 3.418,-1.884 0.453,-0.058 2.415,0.147 2.415,0.147 h 0.075" /><path
       inkscape:connector-curvature="0"
       id="path1047"
       style="fill:none;stroke:#1d1d1b;stroke-width:0.5;stroke-linecap:butt;stroke-linejoin:miter;stroke-miterlimit:10;stroke-dasharray:none;stroke-opacity:1"
       d="m 208.6995,96.4041 c 0,0 0.794,1.038 1.71,0.977 0.916,-0.061 3.053,-0.061 4.519,0.061 1.465,0.123 41.798,5.579 41.798,5.579 0,0 -1.535,0.165 -2.085,1.386 -0.549,1.221 -0.692,2.684 -0.63,3.539 0.061,0.855 -0.55,2.015 0.183,2.931 0.733,0.916 1.099,2.015 1.343,2.381 0.245,0.367 1.14,1.539 1.058,2.174 -0.081,0.636 -0.376,1.978 0.159,2.416 0.688,0.563 1.104,1.945 0.86,2.433 -0.245,0.489 -0.794,1.344 -1.588,1.466 -0.794,0.122 -1.551,0.095 -1.987,0.758 -0.422,0.641 -1.032,2.958 -0.875,4.609 0.172,1.813 2.129,4.572 2.219,4.641" /><path
       inkscape:connector-curvature="0"
       id="path1051"
       style="fill:#865f56;fill-opacity:1;fill-rule:nonzero;stroke:none"
       d="m 140.3485,130.6649 c 1.102,0.89 1.989,1.807 3.051,2.423 2.592,1.506 5.395,2.253 8.421,1.73 0.486,-0.084 0.975,-0.287 1.404,-0.537 0.562,-0.326 0.704,-1.075 0.395,-1.705 -0.3,-0.612 -0.857,-0.426 -1.253,-0.256 -3.968,1.705 -7.482,0.058 -11.022,-1.436 -0.219,-0.093 -0.422,-0.219 -0.635,-0.327 -0.016,-0.008 -0.047,0.013 -0.361,0.108" /><path
       inkscape:connector-curvature="0"
       id="path1055"
       style="fill:none;stroke:#b9655c;stroke-width:0.5;stroke-linecap:butt;stroke-linejoin:miter;stroke-miterlimit:10;stroke-dasharray:none;stroke-opacity:1"
       d="m 140.264,124.8211 c 0,0 0.822,1.589 2.959,2.63 2.138,1.042 3.508,1.919 4.33,2.357 0.822,0.438 2.74,1.206 3.452,1.151 0.713,-0.055 0.932,-0.658 0.932,-1.206" /><path
       inkscape:connector-curvature="0"
       id="path1059"
       style="fill:#f0edf0;fill-opacity:1;fill-rule:nonzero;stroke:#b9655c;stroke-width:0.226;stroke-linecap:butt;stroke-linejoin:miter;stroke-miterlimit:4;stroke-dasharray:none;stroke-opacity:1"
       d="m 149.7996,123.6156 c -0.219,0.493 -0.603,0.603 -1.151,0.055 -0.548,-0.548 -0.877,-0.493 -2.082,-0.439 -1.206,0.055 -4.987,1.48 -4.987,1.48 0,0 5.679,1.987 6.678,2.557 1,0.571 0.643,0.642 0.643,0.642 0,0 1.986,-1.145 0.487,-3.928" /><path
       inkscape:connector-curvature="0"
       id="path1063"
       style="fill:#317692;fill-opacity:1;fill-rule:nonzero;stroke:none"
       d="m 149.2518,125.2596 c 0,-1.181 -0.773,-2.137 -1.727,-2.137 -0.953,0 -1.726,0.956 -1.726,2.137 0,1.18 0.871,1.972 1.824,1.972 0.954,0 1.629,-0.792 1.629,-1.972" /><path
       inkscape:connector-curvature="0"
       id="path1067"
       style="fill:none;stroke:#06334a;stroke-width:0.32600001;stroke-linecap:round;stroke-linejoin:round;stroke-miterlimit:4;stroke-dasharray:none;stroke-opacity:1"
       d="m 149.2518,125.2596 c 0,-1.181 -0.773,-2.137 -1.727,-2.137 -0.953,0 -1.726,0.956 -1.726,2.137 0,1.18 0.871,1.972 1.824,1.972 0.954,0 1.629,-0.792 1.629,-1.972 z" /><path
       inkscape:connector-curvature="0"
       id="path1071"
       style="fill:#1d1d22;fill-opacity:1;fill-rule:nonzero;stroke:none"
       d="m 148.1234,125.2118 c 0,-0.59 -0.233,-1.069 -0.521,-1.069 -0.287,0 -0.52,0.479 -0.52,1.069 0,0.59 0.233,1.068 0.52,1.068 0.288,0 0.521,-0.478 0.521,-1.068" /><path
       inkscape:connector-curvature="0"
       id="path1075"
       style="fill:none;fill-opacity:1;fill-rule:nonzero;stroke:none"
       d="m 148.2283,125.8753 c 0,-0.239 -0.131,-0.432 -0.293,-0.432 -0.162,0 -0.292,0.193 -0.292,0.432 0,0.238 0.13,0.432 0.292,0.432 0.162,0 0.293,-0.194 0.293,-0.432" /><path
       inkscape:connector-curvature="0"
       id="path1079"
       style="fill:none;stroke:#b9655c;stroke-width:0.85000002;stroke-linecap:round;stroke-linejoin:miter;stroke-miterlimit:10;stroke-dasharray:none;stroke-opacity:1"
       d="m 151.0604,129.2054 c -1.809,-1.973 -9.591,-4.275 -9.591,-4.275" /><path
       inkscape:connector-curvature="0"
       id="path1083"
       style="fill:none;stroke:#b9655c;stroke-width:0.30000001;stroke-linecap:butt;stroke-linejoin:miter;stroke-miterlimit:4;stroke-dasharray:none;stroke-opacity:1"
       d="m 141.5794,124.7118 c 0,0 5.312,-2.522 6.769,-1.37 0.721,0.571 0.768,0.881 1.12,0.673" /><path
       inkscape:connector-curvature="0"
       id="path1087"
       style="fill:#b9655c;fill-opacity:1;fill-rule:nonzero;stroke:none"
       d="m 129.5921,75.7459 c 0,0 -6.762,3.912 -9.562,5.505 -2.899,1.649 -6.042,5.39 -7.648,8.231 -1.656,2.93 -1.434,17.689 -1.424,18.316 l 0.213,2.822 0.216,-2.857 c -0.003,-0.151 -0.037,-15.22 1.519,-17.974 1.556,-2.752 4.634,-6.411 7.414,-7.993 2.803,-1.594 9.765,-5.677 9.765,-5.677 z" /><path
       inkscape:connector-curvature="0"
       id="path1091"
       style="fill:#b9655c;fill-opacity:1;fill-rule:nonzero;stroke:none"
       d="m 102.3265,120.1825 c 0.313,0.692 0.635,1.38 0.937,2.077 0.674,1.548 1.182,3.131 1.114,4.855 -0.072,1.835 -0.784,3.279 -2.551,3.979 -1.879,0.745 -3.656,0.454 -5.229,-0.836 -1.274,-1.046 -1.769,-2.483 -1.809,-4.065 -0.106,-4.234 1.425,-7.892 3.974,-11.207 1.548,-2.015 2.999,-4.106 4.475,-6.177 0.193,-0.269 0.271,-0.62 0.259,-1.018 -0.08,0.066 -0.197,0.116 -0.234,0.201 -1.057,2.431 -2.778,4.4 -4.447,6.405 -2.402,2.885 -3.968,6.15 -4.279,9.912 -0.104,1.259 -0.048,2.606 0.289,3.814 0.863,3.099 4.533,4.588 7.422,3.154 1.438,-0.714 2.216,-1.902 2.406,-3.462 0.346,-2.852 -0.83,-5.295 -2.044,-7.721 -0.095,0.029 -0.189,0.059 -0.283,0.089" /><path
       inkscape:connector-curvature="0"
       id="path1095"
       style="fill:#b9655c;fill-opacity:1;fill-rule:nonzero;stroke:none"
       d="m 100.4373,124.7806 c -0.059,-0.179 -0.089,-0.375 -0.181,-0.535 -1.637,-2.865 -1.245,-5.573 0.846,-7.98 1.189,-1.37 2.65,-2.505 4.002,-3.733 0.105,-0.095 0.306,-0.086 0.761,-0.202 -0.299,0.493 -0.417,0.813 -0.637,1.03 -0.698,0.688 -0.853,1.485 -0.827,2.45 0.023,0.801 -0.279,1.611 -0.443,2.448 0.615,-0.285 0.836,-0.9 0.908,-1.575 0.043,-0.412 -0.114,-0.855 -0.028,-1.251 0.122,-0.559 0.356,-1.101 0.601,-1.622 0.148,-0.316 0.489,-0.554 0.592,-0.875 0.075,-0.235 -0.011,-0.642 -0.184,-0.799 -0.161,-0.147 -0.632,-0.194 -0.793,-0.066 -2.562,2.027 -5.253,3.963 -6.072,7.419 -0.42,1.777 0.182,4.252 1.455,5.291" /><path
       inkscape:connector-curvature="0"
       id="path1099"
       style="fill:none;stroke:#b9655c;stroke-width:0.5;stroke-linecap:butt;stroke-linejoin:miter;stroke-miterlimit:10;stroke-dasharray:none;stroke-opacity:1"
       d="m 106.7865,122.0677 c 0,0 2.115,4.168 0.382,7.033 -1.732,2.865 -2.931,5.064 -6.663,5.331 -3.731,0.266 -6.692,-1.743 -7.663,-4.331 -0.97,-2.588 -2.065,-6.064 0.133,-10.395 2.2,-4.331 4.865,-9.995 5.798,-11.461 0.932,-1.466 2.711,-4.994 5.154,-5.062 2.442,-0.069 3.403,2.459 3.156,4.593" /><path
       inkscape:connector-curvature="0"
       id="path1103"
       style="fill:#865f56;fill-opacity:1;fill-rule:nonzero;stroke:none"
       d="m 221.0863,130.6649 c -1.102,0.89 -1.988,1.807 -3.05,2.423 -2.592,1.506 -5.396,2.253 -8.422,1.73 -0.486,-0.084 -0.975,-0.287 -1.403,-0.537 -0.563,-0.326 -0.704,-1.075 -0.396,-1.705 0.3,-0.612 0.857,-0.426 1.253,-0.256 3.968,1.705 7.483,0.058 11.022,-1.436 0.219,-0.093 0.423,-0.219 0.635,-0.327 0.016,-0.008 0.048,0.013 0.361,0.108" /><path
       inkscape:connector-curvature="0"
       id="path1107"
       style="fill:none;stroke:#b9655c;stroke-width:0.5;stroke-linecap:butt;stroke-linejoin:miter;stroke-miterlimit:10;stroke-dasharray:none;stroke-opacity:1"
       d="m 221.1712,124.8211 c 0,0 -0.822,1.589 -2.959,2.63 -2.138,1.042 -3.508,1.919 -4.33,2.357 -0.822,0.438 -2.74,1.206 -3.453,1.151 -0.712,-0.055 -0.931,-0.658 -0.931,-1.206" /><path
       inkscape:connector-curvature="0"
       id="path1111"
       style="fill:#f0edf0;fill-opacity:1;fill-rule:nonzero;stroke:#b9655c;stroke-width:0.226;stroke-linecap:butt;stroke-linejoin:miter;stroke-miterlimit:4;stroke-dasharray:none;stroke-opacity:1"
       d="m 211.6356,123.6156 c 0.219,0.493 0.603,0.603 1.151,0.055 0.548,-0.548 0.876,-0.493 2.082,-0.439 1.206,0.055 4.987,1.48 4.987,1.48 0,0 -5.68,1.987 -6.679,2.557 -0.999,0.571 -0.642,0.642 -0.642,0.642 0,0 -1.986,-1.145 -0.488,-3.928" /><path
       inkscape:connector-curvature="0"
       id="path1115"
       style="fill:#317692;fill-opacity:1;fill-rule:nonzero;stroke:none"
       d="m 212.1834,125.2596 c 0,-1.181 0.773,-2.137 1.726,-2.137 0.954,0 1.727,0.956 1.727,2.137 0,1.18 -0.871,1.972 -1.825,1.972 -0.953,0 -1.628,-0.792 -1.628,-1.972" /><path
       inkscape:connector-curvature="0"
       id="path1119"
       style="fill:none;stroke:#06334a;stroke-width:0.32600001;stroke-linecap:round;stroke-linejoin:round;stroke-miterlimit:4;stroke-dasharray:none;stroke-opacity:1"
       d="m 212.1834,125.2596 c 0,-1.181 0.773,-2.137 1.726,-2.137 0.954,0 1.727,0.956 1.727,2.137 0,1.18 -0.871,1.972 -1.825,1.972 -0.953,0 -1.628,-0.792 -1.628,-1.972 z" /><path
       inkscape:connector-curvature="0"
       id="path1123"
       style="fill:#1d1d22;fill-opacity:1;fill-rule:nonzero;stroke:none"
       d="m 213.3118,125.2118 c 0,-0.59 0.233,-1.069 0.521,-1.069 0.287,0 0.52,0.479 0.52,1.069 0,0.59 -0.233,1.068 -0.52,1.068 -0.288,0 -0.521,-0.478 -0.521,-1.068" /><path
       inkscape:connector-curvature="0"
       id="path1127"
       style="fill:none;fill-opacity:1;fill-rule:nonzero;stroke:none"
       d="m 213.2069,125.8753 c 0,-0.239 0.131,-0.432 0.293,-0.432 0.162,0 0.292,0.193 0.292,0.432 0,0.238 -0.13,0.432 -0.292,0.432 -0.162,0 -0.293,-0.194 -0.293,-0.432" /><path
       inkscape:connector-curvature="0"
       id="path1131"
       style="fill:none;stroke:#b9655c;stroke-width:0.85000002;stroke-linecap:round;stroke-linejoin:miter;stroke-miterlimit:10;stroke-dasharray:none;stroke-opacity:1"
       d="m 210.3748,129.2054 c 1.809,-1.973 9.59,-4.275 9.59,-4.275" /><path
       inkscape:connector-curvature="0"
       id="path1135"
       style="fill:none;stroke:#b9655c;stroke-width:0.30000001;stroke-linecap:butt;stroke-linejoin:miter;stroke-miterlimit:4;stroke-dasharray:none;stroke-opacity:1"
       d="m 219.8558,124.7118 c 0,0 -5.312,-2.522 -6.769,-1.37 -0.721,0.571 -0.768,0.881 -1.12,0.673" /><path
       inkscape:connector-curvature="0"
       id="path1139"
       style="fill:#b9655c;fill-opacity:1;fill-rule:nonzero;stroke:none"
       d="m 231.8431,75.7459 c 0,0 6.762,3.912 9.563,5.505 2.898,1.649 6.041,5.39 7.647,8.231 1.656,2.93 1.434,17.689 1.424,18.316 l -0.213,2.822 -0.216,-2.857 c 0.003,-0.151 0.037,-15.22 -1.519,-17.974 -1.556,-2.752 -4.634,-6.411 -7.415,-7.993 -2.802,-1.594 -9.764,-5.677 -9.764,-5.677 z" /><path
       inkscape:connector-curvature="0"
       id="path1143"
       style="fill:#b9655c;fill-opacity:1;fill-rule:nonzero;stroke:none"
       d="m 259.1082,120.1825 c -0.313,0.692 -0.634,1.38 -0.937,2.077 -0.673,1.548 -1.182,3.131 -1.114,4.855 0.072,1.835 0.784,3.279 2.551,3.979 1.88,0.745 3.656,0.454 5.229,-0.836 1.274,-1.046 1.77,-2.483 1.809,-4.065 0.106,-4.234 -1.424,-7.892 -3.973,-11.207 -1.549,-2.015 -3,-4.106 -4.476,-6.177 -0.192,-0.269 -0.271,-0.62 -0.258,-1.018 0.079,0.066 0.196,0.116 0.233,0.201 1.057,2.431 2.778,4.4 4.447,6.405 2.403,2.885 3.969,6.15 4.28,9.912 0.104,1.259 0.047,2.606 -0.29,3.814 -0.863,3.099 -4.533,4.588 -7.422,3.154 -1.438,-0.714 -2.216,-1.902 -2.405,-3.462 -0.347,-2.852 0.83,-5.295 2.043,-7.721 0.095,0.029 0.189,0.059 0.283,0.089" /><path
       inkscape:connector-curvature="0"
       id="path1147"
       style="fill:#b9655c;fill-opacity:1;fill-rule:nonzero;stroke:none"
       d="m 260.9979,124.7806 c 0.059,-0.179 0.089,-0.375 0.181,-0.535 1.637,-2.865 1.245,-5.573 -0.846,-7.98 -1.189,-1.37 -2.651,-2.505 -4.002,-3.733 -0.105,-0.095 -0.306,-0.086 -0.761,-0.202 0.299,0.493 0.417,0.813 0.637,1.03 0.697,0.688 0.853,1.485 0.826,2.45 -0.022,0.801 0.28,1.611 0.444,2.448 -0.616,-0.285 -0.836,-0.9 -0.908,-1.575 -0.043,-0.412 0.114,-0.855 0.027,-1.251 -0.121,-0.559 -0.355,-1.101 -0.6,-1.622 -0.148,-0.316 -0.489,-0.554 -0.592,-0.875 -0.075,-0.235 0.011,-0.642 0.184,-0.799 0.161,-0.147 0.631,-0.194 0.793,-0.066 2.562,2.027 5.253,3.963 6.072,7.419 0.42,1.777 -0.182,4.252 -1.455,5.291" /><path
       inkscape:connector-curvature="0"
       id="path1151"
       style="fill:none;stroke:#b9655c;stroke-width:0.5;stroke-linecap:butt;stroke-linejoin:miter;stroke-miterlimit:10;stroke-dasharray:none;stroke-opacity:1"
       d="m 254.6488,122.0677 c 0,0 -2.115,4.168 -0.383,7.033 1.733,2.865 2.932,5.064 6.664,5.331 3.731,0.266 6.692,-1.743 7.662,-4.331 0.971,-2.588 2.066,-6.064 -0.132,-10.395 -2.2,-4.331 -4.865,-9.995 -5.798,-11.461 -0.933,-1.466 -2.711,-4.994 -5.154,-5.062 -2.442,-0.069 -3.403,2.459 -3.156,4.593" /></g></svg>